G75*
%MOIN*%
%OFA0B0*%
%FSLAX24Y24*%
%IPPOS*%
%LPD*%
%AMOC8*
5,1,8,0,0,1.08239X$1,22.5*
%
%ADD10C,0.0740*%
%ADD11C,0.0616*%
%ADD12OC8,0.0660*%
%ADD13C,0.0240*%
D10*
X015220Y005180D02*
X015220Y005920D01*
X016220Y005920D02*
X016220Y005180D01*
X017220Y005180D02*
X017220Y005920D01*
X018220Y005920D02*
X018220Y005180D01*
X019220Y005180D02*
X019220Y005920D01*
D11*
X021236Y002550D03*
X023204Y002550D03*
X013204Y002550D03*
X011236Y002550D03*
X003204Y002550D03*
X001236Y002550D03*
D12*
X005220Y003550D03*
X005220Y004550D03*
X009220Y003550D03*
X015220Y003550D03*
X019220Y003550D03*
X001220Y004550D03*
D13*
X000740Y002101D02*
X000740Y001070D01*
X023570Y001070D01*
X023570Y002169D01*
X023548Y002147D01*
X023481Y002099D01*
X023407Y002061D01*
X023328Y002035D01*
X023246Y002022D01*
X023204Y002022D01*
X023204Y002550D01*
X022676Y002550D01*
X022676Y002508D01*
X022689Y002426D01*
X022715Y002347D01*
X022753Y002273D01*
X022802Y002206D01*
X022860Y002147D01*
X022928Y002099D01*
X023002Y002061D01*
X023081Y002035D01*
X023163Y002022D01*
X023204Y002022D01*
X023204Y002550D01*
X023204Y002550D01*
X022676Y002550D01*
X022676Y002592D01*
X022689Y002674D01*
X022715Y002753D01*
X022753Y002827D01*
X022802Y002894D01*
X022860Y002953D01*
X022928Y003001D01*
X023002Y003039D01*
X023081Y003065D01*
X023163Y003078D01*
X023204Y003078D01*
X023204Y002550D01*
X023204Y002550D01*
X023204Y002550D01*
X023204Y002534D01*
X023204Y002536D02*
X023204Y002536D01*
X023204Y002550D02*
X023204Y003078D01*
X023246Y003078D01*
X023328Y003065D01*
X023407Y003039D01*
X023481Y003001D01*
X023548Y002953D01*
X023570Y002931D01*
X023570Y005498D01*
X023530Y005429D01*
X023341Y005240D01*
X023111Y005107D01*
X022853Y005038D01*
X022587Y005038D01*
X022329Y005107D01*
X022099Y005240D01*
X021910Y005429D01*
X021777Y005659D01*
X021708Y005917D01*
X021708Y006183D01*
X021777Y006441D01*
X021910Y006671D01*
X022099Y006860D01*
X022329Y006993D01*
X022452Y007026D01*
X016923Y007026D01*
X017299Y006650D01*
X017365Y006650D01*
X017634Y006539D01*
X017720Y006452D01*
X017806Y006539D01*
X018075Y006650D01*
X018365Y006650D01*
X018634Y006539D01*
X018720Y006452D01*
X018806Y006539D01*
X019075Y006650D01*
X019365Y006650D01*
X019634Y006539D01*
X019839Y006334D01*
X019950Y006065D01*
X019950Y005035D01*
X019839Y004766D01*
X019700Y004628D01*
X019700Y004046D01*
X019910Y003836D01*
X019910Y003264D01*
X019797Y003152D01*
X019919Y003030D01*
X020771Y003030D01*
X020857Y003116D01*
X021103Y003218D01*
X021369Y003218D01*
X021614Y003116D01*
X021802Y002928D01*
X021904Y002683D01*
X021904Y002417D01*
X021802Y002172D01*
X021614Y001984D01*
X021369Y001882D01*
X021103Y001882D01*
X020857Y001984D01*
X020771Y002070D01*
X019625Y002070D01*
X019448Y002143D01*
X019313Y002278D01*
X018813Y002778D01*
X018740Y002955D01*
X018740Y003054D01*
X018700Y003094D01*
X018700Y002955D01*
X018627Y002778D01*
X018492Y002643D01*
X018437Y002620D01*
X016960Y001143D01*
X016783Y001070D01*
X012125Y001070D01*
X011948Y001143D01*
X011813Y001278D01*
X011209Y001882D01*
X011103Y001882D01*
X010857Y001984D01*
X010670Y002172D01*
X010568Y002417D01*
X010568Y002539D01*
X010037Y003070D01*
X009716Y003070D01*
X009506Y002860D01*
X008934Y002860D01*
X008530Y003264D01*
X008530Y003836D01*
X008934Y004240D01*
X009506Y004240D01*
X009716Y004030D01*
X010331Y004030D01*
X010508Y003957D01*
X011247Y003218D01*
X011369Y003218D01*
X011614Y003116D01*
X011802Y002928D01*
X011904Y002683D01*
X011904Y002545D01*
X012419Y002030D01*
X013114Y002030D01*
X013081Y002035D01*
X013002Y002061D01*
X012928Y002099D01*
X012860Y002147D01*
X012802Y002206D01*
X012753Y002273D01*
X012715Y002347D01*
X012689Y002426D01*
X012676Y002508D01*
X012676Y002550D01*
X013204Y002550D01*
X013204Y002550D01*
X012676Y002550D01*
X012676Y002592D01*
X012689Y002674D01*
X012715Y002753D01*
X012753Y002827D01*
X012802Y002894D01*
X012860Y002953D01*
X012928Y003001D01*
X013002Y003039D01*
X013081Y003065D01*
X013163Y003078D01*
X013204Y003078D01*
X013204Y002550D01*
X013204Y002550D01*
X015720Y002550D01*
X016220Y003050D01*
X016220Y005550D01*
X016220Y004590D01*
X016266Y004590D01*
X016358Y004605D01*
X016446Y004633D01*
X016529Y004675D01*
X016604Y004730D01*
X016621Y004747D01*
X016806Y004561D01*
X017075Y004450D01*
X017365Y004450D01*
X017634Y004561D01*
X017720Y004648D01*
X017740Y004628D01*
X017740Y003281D01*
X016489Y002030D01*
X013295Y002030D01*
X013328Y002035D01*
X013407Y002061D01*
X013481Y002099D01*
X013548Y002147D01*
X013607Y002206D01*
X013656Y002273D01*
X013693Y002347D01*
X013719Y002426D01*
X013732Y002508D01*
X013732Y002550D01*
X013732Y002592D01*
X013719Y002674D01*
X013693Y002753D01*
X013656Y002827D01*
X013607Y002894D01*
X013548Y002953D01*
X013481Y003001D01*
X013407Y003039D01*
X013328Y003065D01*
X013246Y003078D01*
X013204Y003078D01*
X013204Y002550D01*
X013220Y002550D01*
X013204Y002550D02*
X013732Y002550D01*
X013204Y002550D01*
X013204Y002550D01*
X013732Y002536D02*
X016995Y002536D01*
X017233Y002774D02*
X013682Y002774D01*
X013204Y002774D02*
X013204Y002774D01*
X012726Y002774D02*
X011866Y002774D01*
X011913Y002536D02*
X012676Y002536D01*
X012741Y002297D02*
X012152Y002297D01*
X012390Y002059D02*
X013009Y002059D01*
X013400Y002059D02*
X016518Y002059D01*
X016756Y002297D02*
X013668Y002297D01*
X014530Y003264D02*
X014934Y002860D01*
X015506Y002860D01*
X015910Y003264D01*
X015910Y003836D01*
X015700Y004046D01*
X015700Y004628D01*
X015819Y004747D01*
X015836Y004730D01*
X015911Y004675D01*
X015994Y004633D01*
X016082Y004605D01*
X016174Y004590D01*
X016220Y004590D01*
X016220Y005550D01*
X016220Y005550D01*
X016220Y005398D02*
X016220Y005398D01*
X016220Y005159D02*
X016220Y005159D01*
X016220Y004921D02*
X016220Y004921D01*
X016220Y004682D02*
X016220Y004682D01*
X016538Y004682D02*
X016686Y004682D01*
X015902Y004682D02*
X015754Y004682D01*
X015700Y004444D02*
X017740Y004444D01*
X017740Y004205D02*
X015700Y004205D01*
X015779Y003967D02*
X017740Y003967D01*
X017740Y003728D02*
X015910Y003728D01*
X015910Y003490D02*
X017740Y003490D01*
X017710Y003251D02*
X015897Y003251D01*
X015658Y003013D02*
X017472Y003013D01*
X018220Y003050D02*
X018220Y003082D01*
X016688Y001550D01*
X012220Y001550D01*
X011236Y002534D01*
X011236Y002550D01*
X010236Y003550D01*
X009220Y003550D01*
X008530Y003490D02*
X005910Y003490D01*
X005910Y003264D02*
X005910Y003836D01*
X005700Y004046D01*
X005700Y004054D01*
X005910Y004264D01*
X005910Y004561D01*
X006419Y005070D01*
X014490Y005070D01*
X014490Y005035D01*
X014601Y004766D01*
X014740Y004628D01*
X014740Y004046D01*
X014530Y003836D01*
X014530Y003264D01*
X014543Y003251D02*
X011214Y003251D01*
X010975Y003490D02*
X014530Y003490D01*
X014530Y003728D02*
X010737Y003728D01*
X010485Y003967D02*
X014661Y003967D01*
X014740Y004205D02*
X009541Y004205D01*
X008899Y004205D02*
X005851Y004205D01*
X005910Y004444D02*
X014740Y004444D01*
X014686Y004682D02*
X006031Y004682D01*
X006269Y004921D02*
X014537Y004921D01*
X015220Y005550D02*
X006220Y005550D01*
X005220Y004550D01*
X005220Y003550D01*
X004530Y003490D02*
X001700Y003490D01*
X001700Y003728D02*
X004530Y003728D01*
X004530Y003836D02*
X004530Y003264D01*
X004934Y002860D01*
X005506Y002860D01*
X005910Y003264D01*
X005897Y003251D02*
X008543Y003251D01*
X008782Y003013D02*
X005658Y003013D01*
X004782Y003013D02*
X003459Y003013D01*
X003481Y003001D02*
X003407Y003039D01*
X003328Y003065D01*
X003246Y003078D01*
X003204Y003078D01*
X003163Y003078D01*
X003081Y003065D01*
X003002Y003039D01*
X002928Y003001D01*
X002860Y002953D01*
X002802Y002894D01*
X002753Y002827D01*
X002715Y002753D01*
X002689Y002674D01*
X002676Y002592D01*
X002676Y002550D01*
X002676Y002508D01*
X002689Y002426D01*
X002715Y002347D01*
X002753Y002273D01*
X002802Y002206D01*
X002860Y002147D01*
X002928Y002099D01*
X003002Y002061D01*
X003081Y002035D01*
X003163Y002022D01*
X003204Y002022D01*
X003204Y002550D01*
X002676Y002550D01*
X003204Y002550D01*
X003204Y002550D01*
X003204Y002550D01*
X003204Y003078D01*
X003204Y002550D01*
X003204Y002550D01*
X003204Y002022D01*
X003246Y002022D01*
X003328Y002035D01*
X003407Y002061D01*
X003481Y002099D01*
X003548Y002147D01*
X003607Y002206D01*
X003656Y002273D01*
X003693Y002347D01*
X003719Y002426D01*
X003732Y002508D01*
X003732Y002550D01*
X003732Y002592D01*
X003719Y002674D01*
X003693Y002753D01*
X003656Y002827D01*
X003607Y002894D01*
X003548Y002953D01*
X003481Y003001D01*
X003204Y003013D02*
X003204Y003013D01*
X002949Y003013D02*
X001718Y003013D01*
X001700Y003030D02*
X001802Y002928D01*
X001904Y002683D01*
X001904Y002417D01*
X001802Y002172D01*
X001614Y001984D01*
X001369Y001882D01*
X001103Y001882D01*
X000857Y001984D01*
X000740Y002101D01*
X000740Y002059D02*
X000783Y002059D01*
X000740Y001820D02*
X011271Y001820D01*
X011510Y001582D02*
X000740Y001582D01*
X000740Y001343D02*
X011748Y001343D01*
X012041Y001105D02*
X000740Y001105D01*
X001689Y002059D02*
X003009Y002059D01*
X003204Y002059D02*
X003204Y002059D01*
X003400Y002059D02*
X010783Y002059D01*
X010618Y002297D02*
X003668Y002297D01*
X003204Y002297D02*
X003204Y002297D01*
X002741Y002297D02*
X001854Y002297D01*
X001904Y002536D02*
X002676Y002536D01*
X002726Y002774D02*
X001866Y002774D01*
X001700Y003030D02*
X001700Y004054D01*
X001716Y004070D01*
X003815Y004070D01*
X003992Y004143D01*
X004530Y004681D01*
X004530Y004264D01*
X004740Y004054D01*
X004740Y004046D01*
X004530Y003836D01*
X004661Y003967D02*
X001700Y003967D01*
X001220Y004550D02*
X003720Y004550D01*
X006196Y007026D01*
X016244Y007026D01*
X017220Y006050D01*
X017220Y005550D01*
X018220Y005550D02*
X018220Y003082D01*
X018700Y003013D02*
X018740Y003013D01*
X019220Y003050D02*
X019720Y002550D01*
X021236Y002550D01*
X021854Y002297D02*
X022741Y002297D01*
X023204Y002297D02*
X023204Y002297D01*
X023204Y002059D02*
X023204Y002059D01*
X023009Y002059D02*
X021689Y002059D01*
X020783Y002059D02*
X017875Y002059D01*
X018114Y002297D02*
X019294Y002297D01*
X019056Y002536D02*
X018352Y002536D01*
X018623Y002774D02*
X018817Y002774D01*
X019220Y003050D02*
X019220Y003550D01*
X019220Y005550D01*
X019950Y005636D02*
X021790Y005636D01*
X021719Y005875D02*
X019950Y005875D01*
X019930Y006113D02*
X021708Y006113D01*
X021753Y006352D02*
X019821Y006352D01*
X019510Y006590D02*
X021863Y006590D01*
X022067Y006829D02*
X017120Y006829D01*
X017510Y006590D02*
X017930Y006590D01*
X018510Y006590D02*
X018930Y006590D01*
X019950Y005398D02*
X021941Y005398D01*
X022239Y005159D02*
X019950Y005159D01*
X019903Y004921D02*
X023570Y004921D01*
X023570Y005159D02*
X023201Y005159D01*
X023499Y005398D02*
X023570Y005398D01*
X023570Y004682D02*
X019754Y004682D01*
X019700Y004444D02*
X023570Y004444D01*
X023570Y004205D02*
X019700Y004205D01*
X019779Y003967D02*
X023570Y003967D01*
X023570Y003728D02*
X019910Y003728D01*
X019910Y003490D02*
X023570Y003490D01*
X023570Y003251D02*
X019897Y003251D01*
X021718Y003013D02*
X022949Y003013D01*
X023204Y003013D02*
X023204Y003013D01*
X023459Y003013D02*
X023570Y003013D01*
X023204Y002774D02*
X023204Y002774D01*
X022726Y002774D02*
X021866Y002774D01*
X021904Y002536D02*
X022676Y002536D01*
X023400Y002059D02*
X023570Y002059D01*
X023570Y001820D02*
X017637Y001820D01*
X017398Y001582D02*
X023570Y001582D01*
X023570Y001343D02*
X017160Y001343D01*
X016867Y001105D02*
X023570Y001105D01*
X015220Y003550D02*
X015220Y005550D01*
X011204Y004550D02*
X007720Y004550D01*
X005720Y002550D01*
X003732Y002550D02*
X003204Y002550D01*
X003204Y002550D01*
X003732Y002550D01*
X003732Y002536D02*
X010568Y002536D01*
X010333Y002774D02*
X003682Y002774D01*
X003204Y002774D02*
X003204Y002774D01*
X003204Y002536D02*
X003204Y002536D01*
X001236Y002550D02*
X001220Y002566D01*
X001220Y004550D01*
X004054Y004205D02*
X004589Y004205D01*
X004530Y004444D02*
X004292Y004444D01*
X005779Y003967D02*
X008661Y003967D01*
X008530Y003728D02*
X005910Y003728D01*
X004543Y003251D02*
X001700Y003251D01*
X009658Y003013D02*
X010094Y003013D01*
X011718Y003013D02*
X012949Y003013D01*
X013204Y003013D02*
X013204Y003013D01*
X013459Y003013D02*
X014782Y003013D01*
M02*
