G75*
%MOIN*%
%OFA0B0*%
%FSLAX24Y24*%
%IPPOS*%
%LPD*%
%AMOC8*
5,1,8,0,0,1.08239X$1,22.5*
%
%ADD10C,0.0000*%
D10*
X000220Y000550D02*
X000220Y007546D01*
X024090Y007546D01*
X024090Y000550D01*
X000220Y000550D01*
X001228Y006050D02*
X001230Y006094D01*
X001236Y006138D01*
X001246Y006181D01*
X001259Y006223D01*
X001277Y006263D01*
X001298Y006302D01*
X001322Y006339D01*
X001349Y006374D01*
X001380Y006406D01*
X001413Y006435D01*
X001449Y006461D01*
X001487Y006483D01*
X001527Y006502D01*
X001568Y006518D01*
X001611Y006530D01*
X001654Y006538D01*
X001698Y006542D01*
X001742Y006542D01*
X001786Y006538D01*
X001829Y006530D01*
X001872Y006518D01*
X001913Y006502D01*
X001953Y006483D01*
X001991Y006461D01*
X002027Y006435D01*
X002060Y006406D01*
X002091Y006374D01*
X002118Y006339D01*
X002142Y006302D01*
X002163Y006263D01*
X002181Y006223D01*
X002194Y006181D01*
X002204Y006138D01*
X002210Y006094D01*
X002212Y006050D01*
X002210Y006006D01*
X002204Y005962D01*
X002194Y005919D01*
X002181Y005877D01*
X002163Y005837D01*
X002142Y005798D01*
X002118Y005761D01*
X002091Y005726D01*
X002060Y005694D01*
X002027Y005665D01*
X001991Y005639D01*
X001953Y005617D01*
X001913Y005598D01*
X001872Y005582D01*
X001829Y005570D01*
X001786Y005562D01*
X001742Y005558D01*
X001698Y005558D01*
X001654Y005562D01*
X001611Y005570D01*
X001568Y005582D01*
X001527Y005598D01*
X001487Y005617D01*
X001449Y005639D01*
X001413Y005665D01*
X001380Y005694D01*
X001349Y005726D01*
X001322Y005761D01*
X001298Y005798D01*
X001277Y005837D01*
X001259Y005877D01*
X001246Y005919D01*
X001236Y005962D01*
X001230Y006006D01*
X001228Y006050D01*
X022228Y006050D02*
X022230Y006094D01*
X022236Y006138D01*
X022246Y006181D01*
X022259Y006223D01*
X022277Y006263D01*
X022298Y006302D01*
X022322Y006339D01*
X022349Y006374D01*
X022380Y006406D01*
X022413Y006435D01*
X022449Y006461D01*
X022487Y006483D01*
X022527Y006502D01*
X022568Y006518D01*
X022611Y006530D01*
X022654Y006538D01*
X022698Y006542D01*
X022742Y006542D01*
X022786Y006538D01*
X022829Y006530D01*
X022872Y006518D01*
X022913Y006502D01*
X022953Y006483D01*
X022991Y006461D01*
X023027Y006435D01*
X023060Y006406D01*
X023091Y006374D01*
X023118Y006339D01*
X023142Y006302D01*
X023163Y006263D01*
X023181Y006223D01*
X023194Y006181D01*
X023204Y006138D01*
X023210Y006094D01*
X023212Y006050D01*
X023210Y006006D01*
X023204Y005962D01*
X023194Y005919D01*
X023181Y005877D01*
X023163Y005837D01*
X023142Y005798D01*
X023118Y005761D01*
X023091Y005726D01*
X023060Y005694D01*
X023027Y005665D01*
X022991Y005639D01*
X022953Y005617D01*
X022913Y005598D01*
X022872Y005582D01*
X022829Y005570D01*
X022786Y005562D01*
X022742Y005558D01*
X022698Y005558D01*
X022654Y005562D01*
X022611Y005570D01*
X022568Y005582D01*
X022527Y005598D01*
X022487Y005617D01*
X022449Y005639D01*
X022413Y005665D01*
X022380Y005694D01*
X022349Y005726D01*
X022322Y005761D01*
X022298Y005798D01*
X022277Y005837D01*
X022259Y005877D01*
X022246Y005919D01*
X022236Y005962D01*
X022230Y006006D01*
X022228Y006050D01*
M02*
