%
M48
M72
T01C0.0320
T02C0.0394
T03C0.0400
T04C0.1250
%
T01
X5720Y6220
X5720Y7220
X5720Y8220
X5720Y9220
X5720Y10220
X5720Y11220
X5720Y12220
X5720Y13220
X5720Y14220
X5720Y15220
X5720Y16220
X5720Y17220
X5720Y18220
X5720Y19220
X5720Y20220
X7220Y15220
X7220Y13220
X7220Y11220
X10220Y11220
X10220Y13220
X10220Y15220
X11720Y15220
X11720Y16220
X11720Y17220
X11720Y18220
X11720Y19220
X11720Y20220
X11720Y14220
X11720Y13220
X11720Y12220
X11720Y11220
X11720Y10220
X11720Y9220
X11720Y8220
X11720Y7220
X11720Y6220
T02
X2220Y3539
X2220Y5940
X4110Y4720
T03
X5720Y4220
X5720Y3220
X5720Y2220
X7720Y2220
X7720Y3220
X7720Y4220
X9720Y4220
X9720Y3220
X9720Y2220
X11720Y2220
X11720Y3220
X11720Y4220
X11720Y1220
X3720Y11220
X3720Y12220
X3720Y14220
X2720Y14220
X1720Y14220
X1720Y12220
X1720Y11220
X1720Y10220
X1720Y9220
X1720Y8220
X1720Y16220
X2720Y16220
X3720Y16220
X3720Y18220
X2720Y18220
X1720Y18220
X1720Y20220
X2720Y20220
X3720Y20220
T04
X8720Y19220
X8720Y8220
M30
