G75*
%MOIN*%
%OFA0B0*%
%FSLAX24Y24*%
%IPPOS*%
%LPD*%
%AMOC8*
5,1,8,0,0,1.08239X$1,22.5*
%
%ADD10C,0.0600*%
%ADD11C,0.0787*%
%ADD12C,0.0520*%
%ADD13OC8,0.0520*%
%ADD14C,0.0240*%
D10*
X001420Y008220D02*
X002020Y008220D01*
X002020Y009220D02*
X001420Y009220D01*
X001420Y010220D02*
X002020Y010220D01*
X002020Y011220D02*
X001420Y011220D01*
X001420Y012220D02*
X002020Y012220D01*
X001720Y013920D02*
X001720Y014520D01*
X001720Y015920D02*
X001720Y016520D01*
X001720Y017920D02*
X001720Y018520D01*
X001720Y019920D02*
X001720Y020520D01*
X002720Y020520D02*
X002720Y019920D01*
X002720Y018520D02*
X002720Y017920D01*
X002720Y016520D02*
X002720Y015920D01*
X002720Y014520D02*
X002720Y013920D01*
X003720Y013920D02*
X003720Y014520D01*
X003720Y015920D02*
X003720Y016520D01*
X003720Y017920D02*
X003720Y018520D01*
X003720Y019920D02*
X003720Y020520D01*
X003420Y012220D02*
X004020Y012220D01*
X004020Y011220D02*
X003420Y011220D01*
X005420Y004220D02*
X006020Y004220D01*
X006020Y003220D02*
X005420Y003220D01*
X005420Y002220D02*
X006020Y002220D01*
X007420Y002220D02*
X008020Y002220D01*
X008020Y003220D02*
X007420Y003220D01*
X007420Y004220D02*
X008020Y004220D01*
X009420Y004220D02*
X010020Y004220D01*
X010020Y003220D02*
X009420Y003220D01*
X009420Y002220D02*
X010020Y002220D01*
X011420Y002220D02*
X012020Y002220D01*
X012020Y003220D02*
X011420Y003220D01*
X011420Y004220D02*
X012020Y004220D01*
X012020Y001220D02*
X011420Y001220D01*
D11*
X004110Y004326D02*
X004110Y005114D01*
X002614Y005940D02*
X001826Y005940D01*
X001826Y003539D02*
X002614Y003539D01*
D12*
X005460Y006220D02*
X005980Y006220D01*
X005980Y007220D02*
X005460Y007220D01*
X005460Y008220D02*
X005980Y008220D01*
X005980Y009220D02*
X005460Y009220D01*
X005460Y010220D02*
X005980Y010220D01*
X005980Y011220D02*
X005460Y011220D01*
X005460Y012220D02*
X005980Y012220D01*
X005980Y013220D02*
X005460Y013220D01*
X005460Y014220D02*
X005980Y014220D01*
X005980Y015220D02*
X005460Y015220D01*
X005460Y016220D02*
X005980Y016220D01*
X005980Y017220D02*
X005460Y017220D01*
X005460Y018220D02*
X005980Y018220D01*
X005980Y019220D02*
X005460Y019220D01*
X005460Y020220D02*
X005980Y020220D01*
X011460Y020220D02*
X011980Y020220D01*
X011980Y019220D02*
X011460Y019220D01*
X011460Y018220D02*
X011980Y018220D01*
X011980Y017220D02*
X011460Y017220D01*
X011460Y016220D02*
X011980Y016220D01*
X011980Y015220D02*
X011460Y015220D01*
X011460Y014220D02*
X011980Y014220D01*
X011980Y013220D02*
X011460Y013220D01*
X011460Y012220D02*
X011980Y012220D01*
X011980Y011220D02*
X011460Y011220D01*
X011460Y010220D02*
X011980Y010220D01*
X011980Y009220D02*
X011460Y009220D01*
X011460Y008220D02*
X011980Y008220D01*
X011980Y007220D02*
X011460Y007220D01*
X011460Y006220D02*
X011980Y006220D01*
D13*
X010220Y011220D03*
X010220Y013220D03*
X010220Y015220D03*
X007220Y015220D03*
X007220Y013220D03*
X007220Y011220D03*
D14*
X000740Y021200D02*
X000740Y000740D01*
X010967Y000740D01*
X010860Y000846D01*
X010760Y001089D01*
X010760Y001351D01*
X010860Y001594D01*
X010987Y001720D01*
X010860Y001846D01*
X010760Y002089D01*
X010760Y002351D01*
X010860Y002594D01*
X010987Y002720D01*
X010860Y002846D01*
X010760Y003089D01*
X010760Y003351D01*
X010860Y003594D01*
X010987Y003720D01*
X010860Y003846D01*
X010760Y004089D01*
X010760Y004351D01*
X010860Y004594D01*
X011046Y004780D01*
X011289Y004880D01*
X012151Y004880D01*
X012200Y004860D01*
X012200Y005640D01*
X012103Y005600D01*
X011337Y005600D01*
X011200Y005657D01*
X011200Y005125D01*
X011127Y004948D01*
X010992Y004813D01*
X010992Y004813D01*
X010636Y004457D01*
X010680Y004351D01*
X010680Y004089D01*
X010580Y003846D01*
X010453Y003720D01*
X010580Y003594D01*
X010680Y003351D01*
X010680Y003089D01*
X010580Y002846D01*
X010394Y002660D01*
X010333Y002635D01*
X010359Y002617D01*
X010417Y002559D01*
X010465Y002493D01*
X010502Y002420D01*
X010527Y002342D01*
X010540Y002261D01*
X010540Y002220D01*
X009720Y002220D01*
X009720Y002220D01*
X009720Y001700D01*
X010061Y001700D01*
X010142Y001713D01*
X010220Y001738D01*
X010293Y001775D01*
X010359Y001823D01*
X010417Y001881D01*
X010465Y001947D01*
X010502Y002020D01*
X010527Y002098D01*
X010540Y002179D01*
X010540Y002220D01*
X009720Y002220D01*
X009720Y002220D01*
X009720Y002220D01*
X008900Y002220D01*
X008900Y002261D01*
X008913Y002342D01*
X008938Y002420D01*
X008975Y002493D01*
X009023Y002559D01*
X009081Y002617D01*
X009107Y002635D01*
X009046Y002660D01*
X008860Y002846D01*
X008760Y003089D01*
X008760Y003351D01*
X008860Y003594D01*
X008987Y003720D01*
X008860Y003846D01*
X008760Y004089D01*
X008760Y004351D01*
X008860Y004594D01*
X009046Y004780D01*
X009289Y004880D01*
X009701Y004880D01*
X010240Y005419D01*
X010240Y006061D01*
X008636Y004457D01*
X008680Y004351D01*
X008680Y004089D01*
X008580Y003846D01*
X008453Y003720D01*
X008580Y003594D01*
X008680Y003351D01*
X008680Y003089D01*
X008580Y002846D01*
X008394Y002660D01*
X008333Y002635D01*
X008359Y002617D01*
X008417Y002559D01*
X008465Y002493D01*
X008502Y002420D01*
X008527Y002342D01*
X008540Y002261D01*
X008540Y002220D01*
X007720Y002220D01*
X007720Y002220D01*
X008540Y002220D01*
X008540Y002179D01*
X008527Y002098D01*
X008502Y002020D01*
X008465Y001947D01*
X008417Y001881D01*
X008359Y001823D01*
X008293Y001775D01*
X008220Y001738D01*
X008142Y001713D01*
X008061Y001700D01*
X007720Y001700D01*
X007720Y002220D01*
X007720Y002220D01*
X007720Y002220D01*
X006900Y002220D01*
X006900Y002261D01*
X006913Y002342D01*
X006938Y002420D01*
X006975Y002493D01*
X007023Y002559D01*
X007081Y002617D01*
X007107Y002635D01*
X007046Y002660D01*
X006860Y002846D01*
X006760Y003089D01*
X006760Y003351D01*
X006860Y003594D01*
X006987Y003720D01*
X006860Y003846D01*
X006760Y004089D01*
X006760Y004351D01*
X006860Y004594D01*
X007046Y004780D01*
X007289Y004880D01*
X007701Y004880D01*
X009740Y006919D01*
X009740Y007697D01*
X009636Y007517D01*
X009423Y007304D01*
X009162Y007153D01*
X008871Y007075D01*
X008569Y007075D01*
X008278Y007153D01*
X008017Y007304D01*
X007804Y007517D01*
X007700Y007697D01*
X007700Y005625D01*
X007627Y005448D01*
X007492Y005313D01*
X007492Y005313D01*
X006636Y004457D01*
X006680Y004351D01*
X006680Y004089D01*
X006580Y003846D01*
X006453Y003720D01*
X006580Y003594D01*
X006680Y003351D01*
X006680Y003089D01*
X006580Y002846D01*
X006394Y002660D01*
X006333Y002635D01*
X006359Y002617D01*
X006417Y002559D01*
X006465Y002493D01*
X006502Y002420D01*
X006527Y002342D01*
X006540Y002261D01*
X006540Y002220D01*
X005720Y002220D01*
X005720Y002220D01*
X006540Y002220D01*
X006540Y002179D01*
X006527Y002098D01*
X006502Y002020D01*
X006465Y001947D01*
X006417Y001881D01*
X006359Y001823D01*
X006293Y001775D01*
X006220Y001738D01*
X006142Y001713D01*
X006061Y001700D01*
X005720Y001700D01*
X005720Y002220D01*
X005720Y002220D01*
X005720Y002220D01*
X004900Y002220D01*
X004900Y002261D01*
X004913Y002342D01*
X004938Y002420D01*
X004975Y002493D01*
X005023Y002559D01*
X005081Y002617D01*
X005107Y002635D01*
X005046Y002660D01*
X004860Y002846D01*
X004760Y003089D01*
X004760Y003351D01*
X004860Y003594D01*
X004987Y003720D01*
X004860Y003846D01*
X004794Y004008D01*
X004749Y003899D01*
X004537Y003687D01*
X004260Y003573D01*
X003960Y003573D01*
X003683Y003687D01*
X003471Y003899D01*
X003356Y004176D01*
X003356Y005264D01*
X003471Y005541D01*
X003683Y005753D01*
X003960Y005867D01*
X004260Y005867D01*
X004537Y005753D01*
X004749Y005541D01*
X004863Y005264D01*
X004863Y004597D01*
X005046Y004780D01*
X005289Y004880D01*
X005701Y004880D01*
X006740Y005919D01*
X006740Y009815D01*
X006813Y009992D01*
X008240Y011419D01*
X008240Y013815D01*
X008313Y013992D01*
X009600Y015279D01*
X009600Y015477D01*
X009963Y015840D01*
X010477Y015840D01*
X010840Y015477D01*
X010840Y014963D01*
X010477Y014600D01*
X010279Y014600D01*
X009200Y013521D01*
X009200Y012879D01*
X009600Y013279D01*
X009600Y013477D01*
X009963Y013840D01*
X010477Y013840D01*
X010840Y013477D01*
X010840Y012963D01*
X010477Y012600D01*
X010279Y012600D01*
X009700Y012021D01*
X009700Y011577D01*
X009963Y011840D01*
X010477Y011840D01*
X010840Y011477D01*
X010840Y010963D01*
X010748Y010871D01*
X010991Y010628D01*
X011083Y010720D01*
X010934Y010869D01*
X010840Y011097D01*
X010840Y011343D01*
X010934Y011571D01*
X011083Y011720D01*
X010934Y011869D01*
X010840Y012097D01*
X010840Y012343D01*
X010934Y012571D01*
X011083Y012720D01*
X010934Y012869D01*
X010840Y013097D01*
X010840Y013343D01*
X010934Y013571D01*
X011083Y013720D01*
X010934Y013869D01*
X010840Y014097D01*
X010840Y014343D01*
X010934Y014571D01*
X011083Y014720D01*
X010934Y014869D01*
X010840Y015097D01*
X010840Y015343D01*
X010934Y015571D01*
X011083Y015720D01*
X010934Y015869D01*
X010840Y016097D01*
X010840Y016343D01*
X010934Y016571D01*
X011083Y016720D01*
X010934Y016869D01*
X010840Y017097D01*
X010840Y017343D01*
X010934Y017571D01*
X011083Y017720D01*
X010934Y017869D01*
X010840Y018097D01*
X010840Y018343D01*
X010934Y018571D01*
X011083Y018720D01*
X010934Y018869D01*
X010840Y019097D01*
X010840Y019343D01*
X010934Y019571D01*
X011083Y019720D01*
X010934Y019869D01*
X010840Y020097D01*
X010840Y020343D01*
X010934Y020571D01*
X011109Y020746D01*
X011337Y020840D01*
X012103Y020840D01*
X012200Y020800D01*
X012200Y021200D01*
X000740Y021200D01*
X000740Y021047D02*
X002314Y021047D01*
X002346Y021080D02*
X002160Y020894D01*
X002135Y020833D01*
X002117Y020859D01*
X002059Y020917D01*
X001993Y020965D01*
X001920Y021002D01*
X001842Y021027D01*
X001761Y021040D01*
X001720Y021040D01*
X001720Y020220D01*
X001720Y020220D01*
X001720Y019400D01*
X001761Y019400D01*
X001842Y019413D01*
X001920Y019438D01*
X001993Y019475D01*
X002059Y019523D01*
X002117Y019581D01*
X002135Y019607D01*
X002160Y019546D01*
X002346Y019360D01*
X002589Y019260D01*
X002851Y019260D01*
X003094Y019360D01*
X003220Y019487D01*
X003346Y019360D01*
X003589Y019260D01*
X003851Y019260D01*
X004094Y019360D01*
X004280Y019546D01*
X004380Y019789D01*
X004380Y020651D01*
X004280Y020894D01*
X004094Y021080D01*
X003851Y021180D01*
X003589Y021180D01*
X003346Y021080D01*
X003220Y020953D01*
X003094Y021080D01*
X002851Y021180D01*
X002589Y021180D01*
X002346Y021080D01*
X001720Y021040D02*
X001720Y020220D01*
X001720Y020220D01*
X001720Y020220D01*
X001200Y020220D01*
X001200Y020561D01*
X001213Y020642D01*
X001238Y020720D01*
X001275Y020793D01*
X001323Y020859D01*
X001381Y020917D01*
X001447Y020965D01*
X001520Y021002D01*
X001598Y021027D01*
X001679Y021040D01*
X001720Y021040D01*
X001720Y020809D02*
X001720Y020809D01*
X001720Y020570D02*
X001720Y020570D01*
X001720Y020332D02*
X001720Y020332D01*
X001720Y020220D02*
X001200Y020220D01*
X001200Y019879D01*
X001213Y019798D01*
X001238Y019720D01*
X001275Y019647D01*
X001323Y019581D01*
X001381Y019523D01*
X001447Y019475D01*
X001520Y019438D01*
X001598Y019413D01*
X001679Y019400D01*
X001720Y019400D01*
X001720Y020220D01*
X001720Y020093D02*
X001720Y020093D01*
X001720Y019855D02*
X001720Y019855D01*
X001720Y019616D02*
X001720Y019616D01*
X001720Y019040D02*
X001679Y019040D01*
X001598Y019027D01*
X001520Y019002D01*
X001447Y018965D01*
X001381Y018917D01*
X001323Y018859D01*
X001275Y018793D01*
X001238Y018720D01*
X001213Y018642D01*
X001200Y018561D01*
X001200Y018220D01*
X001720Y018220D01*
X001720Y018220D01*
X001720Y019040D01*
X001761Y019040D01*
X001842Y019027D01*
X001920Y019002D01*
X001993Y018965D01*
X002059Y018917D01*
X002117Y018859D01*
X002135Y018833D01*
X002160Y018894D01*
X002346Y019080D01*
X002589Y019180D01*
X002851Y019180D01*
X003094Y019080D01*
X003220Y018953D01*
X003346Y019080D01*
X003589Y019180D01*
X003851Y019180D01*
X004094Y019080D01*
X004280Y018894D01*
X004380Y018651D01*
X004380Y017789D01*
X004280Y017546D01*
X004094Y017360D01*
X003851Y017260D01*
X003589Y017260D01*
X003346Y017360D01*
X003220Y017487D01*
X003094Y017360D01*
X002851Y017260D01*
X002589Y017260D01*
X002346Y017360D01*
X002160Y017546D01*
X002135Y017607D01*
X002117Y017581D01*
X002059Y017523D01*
X001993Y017475D01*
X001920Y017438D01*
X001842Y017413D01*
X001761Y017400D01*
X001720Y017400D01*
X001720Y018220D01*
X001720Y018220D01*
X001720Y018220D01*
X001720Y019040D01*
X001720Y018901D02*
X001720Y018901D01*
X001720Y018662D02*
X001720Y018662D01*
X001720Y018424D02*
X001720Y018424D01*
X001720Y018220D02*
X001200Y018220D01*
X001200Y017879D01*
X001213Y017798D01*
X001238Y017720D01*
X001275Y017647D01*
X001323Y017581D01*
X001381Y017523D01*
X001447Y017475D01*
X001520Y017438D01*
X001598Y017413D01*
X001679Y017400D01*
X001720Y017400D01*
X001720Y018220D01*
X001720Y018185D02*
X001720Y018185D01*
X001720Y017947D02*
X001720Y017947D01*
X001720Y017708D02*
X001720Y017708D01*
X001720Y017470D02*
X001720Y017470D01*
X001981Y017470D02*
X002237Y017470D01*
X002346Y017080D02*
X002160Y016894D01*
X002135Y016833D01*
X002117Y016859D01*
X002059Y016917D01*
X001993Y016965D01*
X001920Y017002D01*
X001842Y017027D01*
X001761Y017040D01*
X001720Y017040D01*
X001720Y016220D01*
X001720Y016220D01*
X001720Y015400D01*
X001761Y015400D01*
X001842Y015413D01*
X001920Y015438D01*
X001993Y015475D01*
X002059Y015523D01*
X002117Y015581D01*
X002135Y015607D01*
X002160Y015546D01*
X002346Y015360D01*
X002589Y015260D01*
X002851Y015260D01*
X003094Y015360D01*
X003220Y015487D01*
X003346Y015360D01*
X003589Y015260D01*
X003851Y015260D01*
X004094Y015360D01*
X004280Y015546D01*
X004380Y015789D01*
X004380Y016651D01*
X004280Y016894D01*
X004094Y017080D01*
X003851Y017180D01*
X003589Y017180D01*
X003346Y017080D01*
X003220Y016953D01*
X003094Y017080D01*
X002851Y017180D01*
X002589Y017180D01*
X002346Y017080D01*
X002259Y016993D02*
X001938Y016993D01*
X001720Y016993D02*
X001720Y016993D01*
X001720Y017040D02*
X001679Y017040D01*
X001598Y017027D01*
X001520Y017002D01*
X001447Y016965D01*
X001381Y016917D01*
X001323Y016859D01*
X001275Y016793D01*
X001238Y016720D01*
X001213Y016642D01*
X001200Y016561D01*
X001200Y016220D01*
X001720Y016220D01*
X001720Y016220D01*
X001720Y016220D01*
X001720Y017040D01*
X001720Y016754D02*
X001720Y016754D01*
X001720Y016516D02*
X001720Y016516D01*
X001720Y016277D02*
X001720Y016277D01*
X001720Y016220D02*
X001200Y016220D01*
X001200Y015879D01*
X001213Y015798D01*
X001238Y015720D01*
X001275Y015647D01*
X001323Y015581D01*
X001381Y015523D01*
X001447Y015475D01*
X001520Y015438D01*
X001598Y015413D01*
X001679Y015400D01*
X001720Y015400D01*
X001720Y016220D01*
X001720Y016039D02*
X001720Y016039D01*
X001720Y015800D02*
X001720Y015800D01*
X001720Y015562D02*
X001720Y015562D01*
X002097Y015562D02*
X002154Y015562D01*
X002437Y015323D02*
X000740Y015323D01*
X000740Y015085D02*
X002358Y015085D01*
X002346Y015080D02*
X002160Y014894D01*
X002135Y014833D01*
X002117Y014859D01*
X002059Y014917D01*
X001993Y014965D01*
X001920Y015002D01*
X001842Y015027D01*
X001761Y015040D01*
X001720Y015040D01*
X001720Y014220D01*
X001720Y014220D01*
X001720Y013400D01*
X001761Y013400D01*
X001842Y013413D01*
X001920Y013438D01*
X001993Y013475D01*
X002059Y013523D01*
X002117Y013581D01*
X002135Y013607D01*
X002160Y013546D01*
X002346Y013360D01*
X002589Y013260D01*
X002851Y013260D01*
X003094Y013360D01*
X003220Y013487D01*
X003346Y013360D01*
X003589Y013260D01*
X003851Y013260D01*
X004094Y013360D01*
X004280Y013546D01*
X004380Y013789D01*
X004380Y014651D01*
X004280Y014894D01*
X004094Y015080D01*
X003851Y015180D01*
X003589Y015180D01*
X003346Y015080D01*
X003220Y014953D01*
X003094Y015080D01*
X002851Y015180D01*
X002589Y015180D01*
X002346Y015080D01*
X002141Y014846D02*
X002126Y014846D01*
X001720Y014846D02*
X001720Y014846D01*
X001720Y015040D02*
X001679Y015040D01*
X001598Y015027D01*
X001520Y015002D01*
X001447Y014965D01*
X001381Y014917D01*
X001323Y014859D01*
X001275Y014793D01*
X001238Y014720D01*
X001213Y014642D01*
X001200Y014561D01*
X001200Y014220D01*
X001720Y014220D01*
X001720Y014220D01*
X001720Y014220D01*
X001720Y015040D01*
X001720Y014608D02*
X001720Y014608D01*
X001720Y014369D02*
X001720Y014369D01*
X001720Y014220D02*
X001200Y014220D01*
X001200Y013879D01*
X001213Y013798D01*
X001238Y013720D01*
X001275Y013647D01*
X001323Y013581D01*
X001381Y013523D01*
X001447Y013475D01*
X001520Y013438D01*
X001598Y013413D01*
X001679Y013400D01*
X001720Y013400D01*
X001720Y014220D01*
X001720Y014131D02*
X001720Y014131D01*
X001720Y013892D02*
X001720Y013892D01*
X001720Y013654D02*
X001720Y013654D01*
X001720Y013415D02*
X001720Y013415D01*
X001849Y013415D02*
X002292Y013415D01*
X002151Y012880D02*
X001289Y012880D01*
X001046Y012780D01*
X000860Y012594D01*
X000760Y012351D01*
X000760Y012089D01*
X000860Y011846D01*
X001046Y011660D01*
X001107Y011635D01*
X001081Y011617D01*
X001023Y011559D01*
X000975Y011493D01*
X000938Y011420D01*
X000913Y011342D01*
X000900Y011261D01*
X000900Y011220D01*
X001720Y011220D01*
X002540Y011220D01*
X002540Y011261D01*
X002527Y011342D01*
X002502Y011420D01*
X002465Y011493D01*
X002417Y011559D01*
X002359Y011617D01*
X002333Y011635D01*
X002394Y011660D01*
X002580Y011846D01*
X002680Y012089D01*
X002680Y012351D01*
X002580Y012594D01*
X002394Y012780D01*
X002151Y012880D01*
X002474Y012700D02*
X002966Y012700D01*
X003046Y012780D02*
X002860Y012594D01*
X002760Y012351D01*
X002760Y012089D01*
X002860Y011846D01*
X002987Y011720D01*
X002860Y011594D01*
X002760Y011351D01*
X002760Y011089D01*
X002860Y010846D01*
X003046Y010660D01*
X003289Y010560D01*
X004151Y010560D01*
X004394Y010660D01*
X004580Y010846D01*
X004680Y011089D01*
X004680Y011351D01*
X004580Y011594D01*
X004453Y011720D01*
X004580Y011846D01*
X004680Y012089D01*
X004680Y012351D01*
X004580Y012594D01*
X004394Y012780D01*
X004151Y012880D01*
X003289Y012880D01*
X003046Y012780D01*
X002805Y012461D02*
X002635Y012461D01*
X002680Y012223D02*
X002760Y012223D01*
X002803Y011984D02*
X002637Y011984D01*
X002479Y011746D02*
X002961Y011746D01*
X002825Y011507D02*
X002454Y011507D01*
X002539Y011269D02*
X002760Y011269D01*
X002540Y011220D02*
X002540Y011179D01*
X002527Y011098D01*
X002502Y011020D01*
X002465Y010947D01*
X002417Y010881D01*
X002359Y010823D01*
X002293Y010775D01*
X002220Y010738D01*
X002164Y010720D01*
X002220Y010702D01*
X002293Y010665D01*
X002359Y010617D01*
X002417Y010559D01*
X002465Y010493D01*
X002502Y010420D01*
X002527Y010342D01*
X002540Y010261D01*
X002540Y010220D01*
X001720Y010220D01*
X001720Y010220D01*
X001720Y010220D01*
X001720Y010700D01*
X001720Y011220D01*
X001720Y011220D01*
X002540Y011220D01*
X002505Y011030D02*
X002784Y011030D01*
X002915Y010792D02*
X002315Y010792D01*
X002421Y010553D02*
X004927Y010553D01*
X004934Y010571D02*
X004840Y010343D01*
X004840Y010097D01*
X004934Y009869D01*
X005083Y009720D01*
X004934Y009571D01*
X004840Y009343D01*
X004840Y009097D01*
X004934Y008869D01*
X005083Y008720D01*
X004934Y008571D01*
X004840Y008343D01*
X004840Y008097D01*
X004934Y007869D01*
X005109Y007694D01*
X005233Y007643D01*
X005208Y007631D01*
X005147Y007586D01*
X005094Y007533D01*
X005049Y007472D01*
X005015Y007404D01*
X004992Y007332D01*
X004980Y007258D01*
X004980Y007220D01*
X005720Y007220D01*
X006460Y007220D01*
X006460Y007258D01*
X006448Y007332D01*
X006425Y007404D01*
X006391Y007472D01*
X006346Y007533D01*
X006293Y007586D01*
X006232Y007631D01*
X006207Y007643D01*
X006331Y007694D01*
X006506Y007869D01*
X006600Y008097D01*
X006600Y008343D01*
X006506Y008571D01*
X006357Y008720D01*
X006506Y008869D01*
X006600Y009097D01*
X006600Y009343D01*
X006506Y009571D01*
X006357Y009720D01*
X006506Y009869D01*
X006600Y010097D01*
X006600Y010343D01*
X006506Y010571D01*
X006357Y010720D01*
X006506Y010869D01*
X006600Y011097D01*
X006600Y011343D01*
X006506Y011571D01*
X006357Y011720D01*
X006506Y011869D01*
X006600Y012097D01*
X006600Y012343D01*
X006506Y012571D01*
X006357Y012720D01*
X006506Y012869D01*
X006600Y013097D01*
X006600Y013343D01*
X006506Y013571D01*
X006357Y013720D01*
X006506Y013869D01*
X006600Y014097D01*
X006600Y014343D01*
X006506Y014571D01*
X006357Y014720D01*
X006506Y014869D01*
X006600Y015097D01*
X006600Y015343D01*
X006506Y015571D01*
X006357Y015720D01*
X006506Y015869D01*
X006600Y016097D01*
X006600Y016343D01*
X006506Y016571D01*
X006357Y016720D01*
X006506Y016869D01*
X006600Y017097D01*
X006600Y017343D01*
X006506Y017571D01*
X006357Y017720D01*
X006506Y017869D01*
X006600Y018097D01*
X006600Y018343D01*
X006506Y018571D01*
X006357Y018720D01*
X006506Y018869D01*
X006600Y019097D01*
X006600Y019343D01*
X006506Y019571D01*
X006357Y019720D01*
X006506Y019869D01*
X006600Y020097D01*
X006600Y020343D01*
X006506Y020571D01*
X006331Y020746D01*
X006103Y020840D01*
X005337Y020840D01*
X005109Y020746D01*
X004934Y020571D01*
X004840Y020343D01*
X004840Y020097D01*
X004934Y019869D01*
X005083Y019720D01*
X004934Y019571D01*
X004840Y019343D01*
X004840Y019097D01*
X004934Y018869D01*
X005083Y018720D01*
X004934Y018571D01*
X004840Y018343D01*
X004840Y018097D01*
X004934Y017869D01*
X005083Y017720D01*
X004934Y017571D01*
X004840Y017343D01*
X004840Y017097D01*
X004934Y016869D01*
X005083Y016720D01*
X004934Y016571D01*
X004840Y016343D01*
X004840Y016097D01*
X004934Y015869D01*
X005083Y015720D01*
X004934Y015571D01*
X004840Y015343D01*
X004840Y015097D01*
X004934Y014869D01*
X005083Y014720D01*
X004934Y014571D01*
X004840Y014343D01*
X004840Y014097D01*
X004934Y013869D01*
X005083Y013720D01*
X004934Y013571D01*
X004840Y013343D01*
X004840Y013097D01*
X004934Y012869D01*
X005083Y012720D01*
X004934Y012571D01*
X004840Y012343D01*
X004840Y012097D01*
X004934Y011869D01*
X005083Y011720D01*
X004934Y011571D01*
X004840Y011343D01*
X004840Y011097D01*
X004934Y010869D01*
X005083Y010720D01*
X004934Y010571D01*
X005012Y010792D02*
X004525Y010792D01*
X004656Y011030D02*
X004868Y011030D01*
X004840Y011269D02*
X004680Y011269D01*
X004615Y011507D02*
X004908Y011507D01*
X005058Y011746D02*
X004479Y011746D01*
X004637Y011984D02*
X004887Y011984D01*
X004840Y012223D02*
X004680Y012223D01*
X004635Y012461D02*
X004889Y012461D01*
X005063Y012700D02*
X004474Y012700D01*
X004840Y013177D02*
X000740Y013177D01*
X000740Y013415D02*
X001591Y013415D01*
X001272Y013654D02*
X000740Y013654D01*
X000740Y013892D02*
X001200Y013892D01*
X001200Y014131D02*
X000740Y014131D01*
X000740Y014369D02*
X001200Y014369D01*
X001207Y014608D02*
X000740Y014608D01*
X000740Y014846D02*
X001314Y014846D01*
X001343Y015562D02*
X000740Y015562D01*
X000740Y015800D02*
X001213Y015800D01*
X001200Y016039D02*
X000740Y016039D01*
X000740Y016277D02*
X001200Y016277D01*
X001200Y016516D02*
X000740Y016516D01*
X000740Y016754D02*
X001256Y016754D01*
X001502Y016993D02*
X000740Y016993D01*
X000740Y017231D02*
X004840Y017231D01*
X004883Y016993D02*
X004181Y016993D01*
X004337Y016754D02*
X005049Y016754D01*
X004911Y016516D02*
X004380Y016516D01*
X004380Y016277D02*
X004840Y016277D01*
X004864Y016039D02*
X004380Y016039D01*
X004380Y015800D02*
X005003Y015800D01*
X004930Y015562D02*
X004286Y015562D01*
X004003Y015323D02*
X004840Y015323D01*
X004845Y015085D02*
X004082Y015085D01*
X004299Y014846D02*
X004957Y014846D01*
X004971Y014608D02*
X004380Y014608D01*
X004380Y014369D02*
X004851Y014369D01*
X004840Y014131D02*
X004380Y014131D01*
X004380Y013892D02*
X004925Y013892D01*
X005017Y013654D02*
X004324Y013654D01*
X004148Y013415D02*
X004870Y013415D01*
X004906Y012938D02*
X000740Y012938D01*
X000740Y012700D02*
X000966Y012700D01*
X000805Y012461D02*
X000740Y012461D01*
X000740Y012223D02*
X000760Y012223D01*
X000740Y011984D02*
X000803Y011984D01*
X000740Y011746D02*
X000961Y011746D01*
X000986Y011507D02*
X000740Y011507D01*
X000740Y011269D02*
X000901Y011269D01*
X000900Y011220D02*
X000900Y011179D01*
X000913Y011098D01*
X000938Y011020D01*
X000975Y010947D01*
X001023Y010881D01*
X001081Y010823D01*
X001147Y010775D01*
X001220Y010738D01*
X001276Y010720D01*
X001220Y010702D01*
X001147Y010665D01*
X001081Y010617D01*
X001023Y010559D01*
X000975Y010493D01*
X000938Y010420D01*
X000913Y010342D01*
X000900Y010261D01*
X000900Y010220D01*
X001720Y010220D01*
X002540Y010220D01*
X002540Y010179D01*
X002527Y010098D01*
X002502Y010020D01*
X002465Y009947D01*
X002417Y009881D01*
X002359Y009823D01*
X002333Y009805D01*
X002394Y009780D01*
X002580Y009594D01*
X002680Y009351D01*
X002680Y009089D01*
X002580Y008846D01*
X002453Y008720D01*
X002580Y008594D01*
X002680Y008351D01*
X002680Y008089D01*
X002580Y007846D01*
X002394Y007660D01*
X002151Y007560D01*
X001289Y007560D01*
X001046Y007660D01*
X000860Y007846D01*
X000760Y008089D01*
X000760Y008351D01*
X000860Y008594D01*
X000987Y008720D01*
X000860Y008846D01*
X000760Y009089D01*
X000760Y009351D01*
X000860Y009594D01*
X001046Y009780D01*
X001107Y009805D01*
X001081Y009823D01*
X001023Y009881D01*
X000975Y009947D01*
X000938Y010020D01*
X000913Y010098D01*
X000900Y010179D01*
X000900Y010220D01*
X001720Y010220D01*
X001720Y010220D01*
X001720Y011220D01*
X001720Y011220D01*
X001720Y011220D01*
X000900Y011220D01*
X000935Y011030D02*
X000740Y011030D01*
X000740Y010792D02*
X001125Y010792D01*
X001019Y010553D02*
X000740Y010553D01*
X000740Y010315D02*
X000908Y010315D01*
X000920Y010076D02*
X000740Y010076D01*
X000740Y009838D02*
X001067Y009838D01*
X000866Y009599D02*
X000740Y009599D01*
X000740Y009361D02*
X000764Y009361D01*
X000760Y009122D02*
X000740Y009122D01*
X000740Y008884D02*
X000845Y008884D01*
X000912Y008645D02*
X000740Y008645D01*
X000740Y008407D02*
X000783Y008407D01*
X000760Y008168D02*
X000740Y008168D01*
X000740Y007930D02*
X000826Y007930D01*
X000740Y007691D02*
X001016Y007691D01*
X000740Y007453D02*
X005040Y007453D01*
X004980Y007220D02*
X004980Y007182D01*
X004992Y007108D01*
X005015Y007036D01*
X005049Y006968D01*
X005094Y006907D01*
X005147Y006854D01*
X005208Y006809D01*
X005233Y006797D01*
X005109Y006746D01*
X004934Y006571D01*
X004840Y006343D01*
X004840Y006097D01*
X004934Y005869D01*
X005109Y005694D01*
X005337Y005600D01*
X006103Y005600D01*
X006331Y005694D01*
X006506Y005869D01*
X006600Y006097D01*
X006600Y006343D01*
X006506Y006571D01*
X006331Y006746D01*
X006207Y006797D01*
X006232Y006809D01*
X006293Y006854D01*
X006346Y006907D01*
X006391Y006968D01*
X006425Y007036D01*
X006448Y007108D01*
X006460Y007182D01*
X006460Y007220D01*
X005720Y007220D01*
X005720Y007220D01*
X005720Y007220D01*
X004980Y007220D01*
X004980Y007214D02*
X000740Y007214D01*
X000740Y006976D02*
X005046Y006976D01*
X005100Y006737D02*
X000740Y006737D01*
X000740Y006499D02*
X001318Y006499D01*
X001399Y006579D02*
X001187Y006367D01*
X001073Y006090D01*
X001073Y005791D01*
X001187Y005514D01*
X001399Y005302D01*
X001676Y005187D01*
X002764Y005187D01*
X003041Y005302D01*
X003253Y005514D01*
X003367Y005791D01*
X003367Y006090D01*
X003253Y006367D01*
X003041Y006579D01*
X002764Y006694D01*
X001676Y006694D01*
X001399Y006579D01*
X001143Y006260D02*
X000740Y006260D01*
X000740Y006022D02*
X001073Y006022D01*
X001076Y005783D02*
X000740Y005783D01*
X000740Y005545D02*
X001175Y005545D01*
X001395Y005306D02*
X000740Y005306D01*
X000740Y005068D02*
X003356Y005068D01*
X003374Y005306D02*
X003045Y005306D01*
X003265Y005545D02*
X003475Y005545D01*
X003364Y005783D02*
X003756Y005783D01*
X003367Y006022D02*
X004871Y006022D01*
X004840Y006260D02*
X003297Y006260D01*
X003122Y006499D02*
X004904Y006499D01*
X005020Y005783D02*
X004463Y005783D01*
X004745Y005545D02*
X006366Y005545D01*
X006420Y005783D02*
X006604Y005783D01*
X006569Y006022D02*
X006740Y006022D01*
X006740Y006260D02*
X006600Y006260D01*
X006536Y006499D02*
X006740Y006499D01*
X006740Y006737D02*
X006340Y006737D01*
X006394Y006976D02*
X006740Y006976D01*
X006740Y007214D02*
X006460Y007214D01*
X006400Y007453D02*
X006740Y007453D01*
X006740Y007691D02*
X006323Y007691D01*
X006531Y007930D02*
X006740Y007930D01*
X006740Y008168D02*
X006600Y008168D01*
X006574Y008407D02*
X006740Y008407D01*
X006740Y008645D02*
X006432Y008645D01*
X006512Y008884D02*
X006740Y008884D01*
X006740Y009122D02*
X006600Y009122D01*
X006593Y009361D02*
X006740Y009361D01*
X006740Y009599D02*
X006478Y009599D01*
X006474Y009838D02*
X006749Y009838D01*
X006897Y010076D02*
X006591Y010076D01*
X006600Y010315D02*
X007136Y010315D01*
X007374Y010553D02*
X006513Y010553D01*
X006428Y010792D02*
X006970Y010792D01*
X007021Y010740D02*
X006740Y011021D01*
X006740Y011220D01*
X007220Y011220D01*
X007700Y011220D01*
X007700Y011419D01*
X007419Y011700D01*
X007220Y011700D01*
X007220Y011220D01*
X007220Y011220D01*
X007220Y011220D01*
X007700Y011220D01*
X007700Y011021D01*
X007419Y010740D01*
X007220Y010740D01*
X007220Y011220D01*
X007220Y011220D01*
X007220Y011220D01*
X007220Y011700D01*
X007021Y011700D01*
X006740Y011419D01*
X006740Y011220D01*
X007220Y011220D01*
X007220Y010740D01*
X007021Y010740D01*
X007220Y010792D02*
X007220Y010792D01*
X007220Y011030D02*
X007220Y011030D01*
X007220Y011269D02*
X007220Y011269D01*
X007220Y011507D02*
X007220Y011507D01*
X007612Y011507D02*
X008240Y011507D01*
X008240Y011746D02*
X006382Y011746D01*
X006532Y011507D02*
X006828Y011507D01*
X006740Y011269D02*
X006600Y011269D01*
X006572Y011030D02*
X006740Y011030D01*
X006553Y011984D02*
X008240Y011984D01*
X008240Y012223D02*
X006600Y012223D01*
X006551Y012461D02*
X008240Y012461D01*
X008240Y012700D02*
X006377Y012700D01*
X006534Y012938D02*
X006823Y012938D01*
X006740Y013021D02*
X007021Y012740D01*
X007220Y012740D01*
X007419Y012740D01*
X007700Y013021D01*
X007700Y013220D01*
X007700Y013419D01*
X007419Y013700D01*
X007220Y013700D01*
X007220Y013220D01*
X007700Y013220D01*
X007220Y013220D01*
X007220Y013220D01*
X007220Y013220D01*
X007220Y012740D01*
X007220Y013220D01*
X007220Y013220D01*
X007220Y013220D01*
X006740Y013220D01*
X006740Y013419D01*
X007021Y013700D01*
X007220Y013700D01*
X007220Y013220D01*
X006740Y013220D01*
X006740Y013021D01*
X006740Y013177D02*
X006600Y013177D01*
X006570Y013415D02*
X006740Y013415D01*
X006975Y013654D02*
X006423Y013654D01*
X006515Y013892D02*
X008272Y013892D01*
X008240Y013654D02*
X007465Y013654D01*
X007220Y013654D02*
X007220Y013654D01*
X007220Y013415D02*
X007220Y013415D01*
X007220Y013177D02*
X007220Y013177D01*
X007220Y012938D02*
X007220Y012938D01*
X007617Y012938D02*
X008240Y012938D01*
X008240Y013177D02*
X007700Y013177D01*
X007700Y013415D02*
X008240Y013415D01*
X008452Y014131D02*
X006600Y014131D01*
X006589Y014369D02*
X008690Y014369D01*
X008929Y014608D02*
X006469Y014608D01*
X006483Y014846D02*
X006915Y014846D01*
X007021Y014740D02*
X006740Y015021D01*
X006740Y015220D01*
X007220Y015220D01*
X007700Y015220D01*
X007700Y015419D01*
X007419Y015700D01*
X007220Y015700D01*
X007220Y015220D01*
X007220Y015220D01*
X007220Y015220D01*
X007700Y015220D01*
X007700Y015021D01*
X007419Y014740D01*
X007220Y014740D01*
X007220Y015220D01*
X007220Y015220D01*
X007220Y015220D01*
X007220Y015700D01*
X007021Y015700D01*
X006740Y015419D01*
X006740Y015220D01*
X007220Y015220D01*
X007220Y014740D01*
X007021Y014740D01*
X007220Y014846D02*
X007220Y014846D01*
X007220Y015085D02*
X007220Y015085D01*
X007220Y015323D02*
X007220Y015323D01*
X007220Y015562D02*
X007220Y015562D01*
X006883Y015562D02*
X006510Y015562D01*
X006600Y015323D02*
X006740Y015323D01*
X006740Y015085D02*
X006595Y015085D01*
X006437Y015800D02*
X009923Y015800D01*
X009685Y015562D02*
X007557Y015562D01*
X007700Y015323D02*
X009600Y015323D01*
X009406Y015085D02*
X007700Y015085D01*
X007525Y014846D02*
X009167Y014846D01*
X009571Y013892D02*
X010925Y013892D01*
X010840Y014131D02*
X009809Y014131D01*
X010048Y014369D02*
X010851Y014369D01*
X010971Y014608D02*
X010484Y014608D01*
X010723Y014846D02*
X010957Y014846D01*
X010845Y015085D02*
X010840Y015085D01*
X010840Y015323D02*
X010840Y015323D01*
X010755Y015562D02*
X010930Y015562D01*
X011003Y015800D02*
X010517Y015800D01*
X010864Y016039D02*
X006576Y016039D01*
X006600Y016277D02*
X010840Y016277D01*
X010911Y016516D02*
X006529Y016516D01*
X006391Y016754D02*
X011049Y016754D01*
X010883Y016993D02*
X006557Y016993D01*
X006600Y017231D02*
X010840Y017231D01*
X010892Y017470D02*
X006548Y017470D01*
X006369Y017708D02*
X011071Y017708D01*
X010902Y017947D02*
X006538Y017947D01*
X006600Y018185D02*
X008223Y018185D01*
X008278Y018153D02*
X008569Y018075D01*
X008871Y018075D01*
X009162Y018153D01*
X009423Y018304D01*
X009636Y018517D01*
X009787Y018778D01*
X009865Y019069D01*
X009865Y019371D01*
X009787Y019662D01*
X009636Y019923D01*
X009423Y020136D01*
X009162Y020287D01*
X008871Y020365D01*
X008569Y020365D01*
X008278Y020287D01*
X008017Y020136D01*
X007804Y019923D01*
X007653Y019662D01*
X007575Y019371D01*
X007575Y019069D01*
X007653Y018778D01*
X007804Y018517D01*
X008017Y018304D01*
X008278Y018153D01*
X007897Y018424D02*
X006567Y018424D01*
X006415Y018662D02*
X007720Y018662D01*
X007620Y018901D02*
X006519Y018901D01*
X006600Y019139D02*
X007575Y019139D01*
X007577Y019378D02*
X006586Y019378D01*
X006461Y019616D02*
X007641Y019616D01*
X007764Y019855D02*
X006491Y019855D01*
X006598Y020093D02*
X007974Y020093D01*
X008444Y020332D02*
X006600Y020332D01*
X006506Y020570D02*
X010934Y020570D01*
X010840Y020332D02*
X008996Y020332D01*
X009466Y020093D02*
X010842Y020093D01*
X010949Y019855D02*
X009676Y019855D01*
X009799Y019616D02*
X010979Y019616D01*
X010854Y019378D02*
X009863Y019378D01*
X009865Y019139D02*
X010840Y019139D01*
X010921Y018901D02*
X009820Y018901D01*
X009720Y018662D02*
X011025Y018662D01*
X010873Y018424D02*
X009543Y018424D01*
X009217Y018185D02*
X010840Y018185D01*
X011261Y020809D02*
X006179Y020809D01*
X005261Y020809D02*
X004315Y020809D01*
X004380Y020570D02*
X004934Y020570D01*
X004840Y020332D02*
X004380Y020332D01*
X004380Y020093D02*
X004842Y020093D01*
X004949Y019855D02*
X004380Y019855D01*
X004308Y019616D02*
X004979Y019616D01*
X004854Y019378D02*
X004111Y019378D01*
X003950Y019139D02*
X004840Y019139D01*
X004921Y018901D02*
X004273Y018901D01*
X004376Y018662D02*
X005025Y018662D01*
X004873Y018424D02*
X004380Y018424D01*
X004380Y018185D02*
X004840Y018185D01*
X004902Y017947D02*
X004380Y017947D01*
X004347Y017708D02*
X005071Y017708D01*
X004892Y017470D02*
X004203Y017470D01*
X003237Y017470D02*
X003203Y017470D01*
X003181Y016993D02*
X003259Y016993D01*
X003437Y015323D02*
X003003Y015323D01*
X003082Y015085D02*
X003358Y015085D01*
X003292Y013415D02*
X003148Y013415D01*
X001720Y011030D02*
X001720Y011030D01*
X001720Y010792D02*
X001720Y010792D01*
X001720Y010553D02*
X001720Y010553D01*
X001720Y010315D02*
X001720Y010315D01*
X002373Y009838D02*
X004966Y009838D01*
X004962Y009599D02*
X002574Y009599D01*
X002676Y009361D02*
X004847Y009361D01*
X004840Y009122D02*
X002680Y009122D01*
X002595Y008884D02*
X004928Y008884D01*
X005008Y008645D02*
X002528Y008645D01*
X002657Y008407D02*
X004866Y008407D01*
X004840Y008168D02*
X002680Y008168D01*
X002614Y007930D02*
X004909Y007930D01*
X005117Y007691D02*
X002424Y007691D01*
X002520Y010076D02*
X004849Y010076D01*
X004840Y010315D02*
X002532Y010315D01*
X004846Y005306D02*
X006127Y005306D01*
X005889Y005068D02*
X004863Y005068D01*
X004863Y004829D02*
X005166Y004829D01*
X005720Y004220D02*
X007220Y005720D01*
X007220Y009720D01*
X008720Y011220D01*
X008720Y013720D01*
X010220Y015220D01*
X009777Y013654D02*
X009332Y013654D01*
X009200Y013415D02*
X009600Y013415D01*
X009498Y013177D02*
X009200Y013177D01*
X009200Y012938D02*
X009259Y012938D01*
X009220Y012220D02*
X010220Y013220D01*
X010663Y013654D02*
X011017Y013654D01*
X010870Y013415D02*
X010840Y013415D01*
X010840Y013177D02*
X010840Y013177D01*
X010815Y012938D02*
X010906Y012938D01*
X011063Y012700D02*
X010576Y012700D01*
X010889Y012461D02*
X010140Y012461D01*
X009901Y012223D02*
X010840Y012223D01*
X010887Y011984D02*
X009700Y011984D01*
X009700Y011746D02*
X009869Y011746D01*
X010220Y011220D02*
X010220Y010720D01*
X010720Y010220D01*
X010720Y005220D01*
X009720Y004220D01*
X009166Y004829D02*
X009008Y004829D01*
X008859Y004591D02*
X008769Y004591D01*
X008760Y004352D02*
X008680Y004352D01*
X008680Y004114D02*
X008760Y004114D01*
X008849Y003875D02*
X008591Y003875D01*
X008537Y003637D02*
X008903Y003637D01*
X008779Y003398D02*
X008661Y003398D01*
X008680Y003160D02*
X008760Y003160D01*
X008829Y002921D02*
X008611Y002921D01*
X008416Y002683D02*
X009024Y002683D01*
X008951Y002444D02*
X008489Y002444D01*
X008540Y002206D02*
X008900Y002206D01*
X008900Y002220D02*
X008900Y002179D01*
X008913Y002098D01*
X008938Y002020D01*
X008975Y001947D01*
X009023Y001881D01*
X009081Y001823D01*
X009147Y001775D01*
X009220Y001738D01*
X009298Y001713D01*
X009379Y001700D01*
X009720Y001700D01*
X009720Y002220D01*
X008900Y002220D01*
X008965Y001967D02*
X008475Y001967D01*
X008190Y001729D02*
X009250Y001729D01*
X009720Y001729D02*
X009720Y001729D01*
X009720Y001967D02*
X009720Y001967D01*
X009720Y002206D02*
X009720Y002206D01*
X010190Y001729D02*
X010978Y001729D01*
X010817Y001490D02*
X000740Y001490D01*
X000740Y001252D02*
X010760Y001252D01*
X010791Y001013D02*
X000740Y001013D01*
X000740Y000775D02*
X010932Y000775D01*
X010810Y001967D02*
X010475Y001967D01*
X010540Y002206D02*
X010760Y002206D01*
X010798Y002444D02*
X010489Y002444D01*
X010416Y002683D02*
X010949Y002683D01*
X010829Y002921D02*
X010611Y002921D01*
X010680Y003160D02*
X010760Y003160D01*
X010779Y003398D02*
X010661Y003398D01*
X010537Y003637D02*
X010903Y003637D01*
X010849Y003875D02*
X010591Y003875D01*
X010680Y004114D02*
X010760Y004114D01*
X010760Y004352D02*
X010680Y004352D01*
X010769Y004591D02*
X010859Y004591D01*
X011008Y004829D02*
X011166Y004829D01*
X011176Y005068D02*
X012200Y005068D01*
X012200Y005306D02*
X011200Y005306D01*
X011200Y005545D02*
X012200Y005545D01*
X010240Y005545D02*
X009723Y005545D01*
X009962Y005783D02*
X010240Y005783D01*
X010240Y006022D02*
X010200Y006022D01*
X010220Y006720D02*
X007720Y004220D01*
X007166Y004829D02*
X007008Y004829D01*
X007246Y005068D02*
X007889Y005068D01*
X008127Y005306D02*
X007485Y005306D01*
X007667Y005545D02*
X008366Y005545D01*
X008604Y005783D02*
X007700Y005783D01*
X007700Y006022D02*
X008843Y006022D01*
X009081Y006260D02*
X007700Y006260D01*
X007700Y006499D02*
X009320Y006499D01*
X009558Y006737D02*
X007700Y006737D01*
X007700Y006976D02*
X009740Y006976D01*
X009740Y007214D02*
X009268Y007214D01*
X009572Y007453D02*
X009740Y007453D01*
X009737Y007691D02*
X009740Y007691D01*
X010220Y006720D02*
X010220Y009720D01*
X009220Y010720D01*
X009220Y012220D01*
X008090Y011269D02*
X007700Y011269D01*
X007700Y011030D02*
X007851Y011030D01*
X007613Y010792D02*
X007470Y010792D01*
X007700Y007691D02*
X007703Y007691D01*
X007700Y007453D02*
X007868Y007453D01*
X007700Y007214D02*
X008172Y007214D01*
X009246Y005068D02*
X009889Y005068D01*
X010127Y005306D02*
X009485Y005306D01*
X007720Y002220D02*
X006900Y002220D01*
X006900Y002179D01*
X006913Y002098D01*
X006938Y002020D01*
X006975Y001947D01*
X007023Y001881D01*
X007081Y001823D01*
X007147Y001775D01*
X007220Y001738D01*
X007298Y001713D01*
X007379Y001700D01*
X007720Y001700D01*
X007720Y002220D01*
X007720Y002206D02*
X007720Y002206D01*
X007720Y001967D02*
X007720Y001967D01*
X007720Y001729D02*
X007720Y001729D01*
X007250Y001729D02*
X006190Y001729D01*
X006475Y001967D02*
X006965Y001967D01*
X006900Y002206D02*
X006540Y002206D01*
X006489Y002444D02*
X006951Y002444D01*
X007024Y002683D02*
X006416Y002683D01*
X006611Y002921D02*
X006829Y002921D01*
X006760Y003160D02*
X006680Y003160D01*
X006661Y003398D02*
X006779Y003398D01*
X006903Y003637D02*
X006537Y003637D01*
X006591Y003875D02*
X006849Y003875D01*
X006760Y004114D02*
X006680Y004114D01*
X006680Y004352D02*
X006760Y004352D01*
X006769Y004591D02*
X006859Y004591D01*
X005720Y002220D02*
X004900Y002220D01*
X004900Y002179D01*
X004913Y002098D01*
X004938Y002020D01*
X004975Y001947D01*
X005023Y001881D01*
X005081Y001823D01*
X005147Y001775D01*
X005220Y001738D01*
X005298Y001713D01*
X005379Y001700D01*
X005720Y001700D01*
X005720Y002220D01*
X005720Y002206D02*
X005720Y002206D01*
X005720Y001967D02*
X005720Y001967D01*
X005720Y001729D02*
X005720Y001729D01*
X005250Y001729D02*
X000740Y001729D01*
X000740Y001967D02*
X004965Y001967D01*
X004900Y002206D02*
X000740Y002206D01*
X000740Y002444D02*
X004951Y002444D01*
X005024Y002683D02*
X000740Y002683D01*
X000740Y002921D02*
X004829Y002921D01*
X004760Y003160D02*
X003097Y003160D01*
X003082Y003139D02*
X003139Y003217D01*
X003182Y003303D01*
X003212Y003395D01*
X003227Y003491D01*
X003227Y003539D01*
X003227Y003587D01*
X003212Y003683D01*
X003182Y003774D01*
X003139Y003861D01*
X003082Y003939D01*
X003013Y004007D01*
X002935Y004064D01*
X002849Y004108D01*
X002757Y004137D01*
X002662Y004153D01*
X002220Y004153D01*
X001778Y004153D01*
X001683Y004137D01*
X001591Y004108D01*
X001505Y004064D01*
X001426Y004007D01*
X001358Y003939D01*
X001301Y003861D01*
X001258Y003774D01*
X001228Y003683D01*
X001213Y003587D01*
X001213Y003539D01*
X002220Y003539D01*
X002220Y004153D01*
X002220Y003539D01*
X002220Y003539D01*
X003227Y003539D01*
X002220Y003539D01*
X002220Y003539D01*
X002220Y003539D01*
X001213Y003539D01*
X001213Y003491D01*
X001228Y003395D01*
X001258Y003303D01*
X001301Y003217D01*
X001358Y003139D01*
X001426Y003071D01*
X001505Y003014D01*
X001591Y002970D01*
X001683Y002940D01*
X001778Y002925D01*
X002220Y002925D01*
X002662Y002925D01*
X002757Y002940D01*
X002849Y002970D01*
X002935Y003014D01*
X003013Y003071D01*
X003082Y003139D01*
X003213Y003398D02*
X004779Y003398D01*
X004903Y003637D02*
X004414Y003637D01*
X004724Y003875D02*
X004849Y003875D01*
X003806Y003637D02*
X003220Y003637D01*
X003128Y003875D02*
X003495Y003875D01*
X003382Y004114D02*
X002831Y004114D01*
X003356Y004352D02*
X000740Y004352D01*
X000740Y004114D02*
X001609Y004114D01*
X001312Y003875D02*
X000740Y003875D01*
X000740Y003637D02*
X001220Y003637D01*
X001227Y003398D02*
X000740Y003398D01*
X000740Y003160D02*
X001343Y003160D01*
X002220Y003160D02*
X002220Y003160D01*
X002220Y002925D02*
X002220Y003539D01*
X002220Y003539D01*
X002220Y002925D01*
X002220Y003398D02*
X002220Y003398D01*
X002220Y003637D02*
X002220Y003637D01*
X002220Y003875D02*
X002220Y003875D01*
X002220Y004114D02*
X002220Y004114D01*
X003356Y004591D02*
X000740Y004591D01*
X000740Y004829D02*
X003356Y004829D01*
X010571Y011746D02*
X011058Y011746D01*
X010908Y011507D02*
X010810Y011507D01*
X010840Y011269D02*
X010840Y011269D01*
X010840Y011030D02*
X010868Y011030D01*
X010827Y010792D02*
X011012Y010792D01*
X012179Y020809D02*
X012200Y020809D01*
X012200Y021047D02*
X004126Y021047D01*
X003314Y021047D02*
X003126Y021047D01*
X003111Y019378D02*
X003329Y019378D01*
X003490Y019139D02*
X002950Y019139D01*
X002490Y019139D02*
X000740Y019139D01*
X000740Y018901D02*
X001365Y018901D01*
X001219Y018662D02*
X000740Y018662D01*
X000740Y018424D02*
X001200Y018424D01*
X001200Y018185D02*
X000740Y018185D01*
X000740Y017947D02*
X001200Y017947D01*
X001244Y017708D02*
X000740Y017708D01*
X000740Y017470D02*
X001459Y017470D01*
X002075Y018901D02*
X002167Y018901D01*
X002329Y019378D02*
X000740Y019378D01*
X000740Y019616D02*
X001298Y019616D01*
X001204Y019855D02*
X000740Y019855D01*
X000740Y020093D02*
X001200Y020093D01*
X001200Y020332D02*
X000740Y020332D01*
X000740Y020570D02*
X001201Y020570D01*
X001287Y020809D02*
X000740Y020809D01*
M02*
