G75*
%MOIN*%
%OFA0B0*%
%FSLAX24Y24*%
%IPPOS*%
%LPD*%
%AMOC8*
5,1,8,0,0,1.08239X$1,22.5*
%
%ADD10C,0.0000*%
D10*
X000220Y000220D02*
X000220Y021720D01*
X012720Y021720D01*
X012720Y000220D01*
X000220Y000220D01*
X008095Y008220D02*
X008097Y008270D01*
X008103Y008319D01*
X008113Y008368D01*
X008126Y008415D01*
X008144Y008462D01*
X008165Y008507D01*
X008189Y008550D01*
X008217Y008591D01*
X008248Y008630D01*
X008282Y008666D01*
X008319Y008700D01*
X008359Y008730D01*
X008400Y008757D01*
X008444Y008781D01*
X008489Y008801D01*
X008536Y008817D01*
X008584Y008830D01*
X008633Y008839D01*
X008683Y008844D01*
X008732Y008845D01*
X008782Y008842D01*
X008831Y008835D01*
X008880Y008824D01*
X008927Y008810D01*
X008973Y008791D01*
X009018Y008769D01*
X009061Y008744D01*
X009101Y008715D01*
X009139Y008683D01*
X009175Y008649D01*
X009208Y008611D01*
X009237Y008571D01*
X009263Y008529D01*
X009286Y008485D01*
X009305Y008439D01*
X009321Y008392D01*
X009333Y008343D01*
X009341Y008294D01*
X009345Y008245D01*
X009345Y008195D01*
X009341Y008146D01*
X009333Y008097D01*
X009321Y008048D01*
X009305Y008001D01*
X009286Y007955D01*
X009263Y007911D01*
X009237Y007869D01*
X009208Y007829D01*
X009175Y007791D01*
X009139Y007757D01*
X009101Y007725D01*
X009061Y007696D01*
X009018Y007671D01*
X008973Y007649D01*
X008927Y007630D01*
X008880Y007616D01*
X008831Y007605D01*
X008782Y007598D01*
X008732Y007595D01*
X008683Y007596D01*
X008633Y007601D01*
X008584Y007610D01*
X008536Y007623D01*
X008489Y007639D01*
X008444Y007659D01*
X008400Y007683D01*
X008359Y007710D01*
X008319Y007740D01*
X008282Y007774D01*
X008248Y007810D01*
X008217Y007849D01*
X008189Y007890D01*
X008165Y007933D01*
X008144Y007978D01*
X008126Y008025D01*
X008113Y008072D01*
X008103Y008121D01*
X008097Y008170D01*
X008095Y008220D01*
X008095Y019220D02*
X008097Y019270D01*
X008103Y019319D01*
X008113Y019368D01*
X008126Y019415D01*
X008144Y019462D01*
X008165Y019507D01*
X008189Y019550D01*
X008217Y019591D01*
X008248Y019630D01*
X008282Y019666D01*
X008319Y019700D01*
X008359Y019730D01*
X008400Y019757D01*
X008444Y019781D01*
X008489Y019801D01*
X008536Y019817D01*
X008584Y019830D01*
X008633Y019839D01*
X008683Y019844D01*
X008732Y019845D01*
X008782Y019842D01*
X008831Y019835D01*
X008880Y019824D01*
X008927Y019810D01*
X008973Y019791D01*
X009018Y019769D01*
X009061Y019744D01*
X009101Y019715D01*
X009139Y019683D01*
X009175Y019649D01*
X009208Y019611D01*
X009237Y019571D01*
X009263Y019529D01*
X009286Y019485D01*
X009305Y019439D01*
X009321Y019392D01*
X009333Y019343D01*
X009341Y019294D01*
X009345Y019245D01*
X009345Y019195D01*
X009341Y019146D01*
X009333Y019097D01*
X009321Y019048D01*
X009305Y019001D01*
X009286Y018955D01*
X009263Y018911D01*
X009237Y018869D01*
X009208Y018829D01*
X009175Y018791D01*
X009139Y018757D01*
X009101Y018725D01*
X009061Y018696D01*
X009018Y018671D01*
X008973Y018649D01*
X008927Y018630D01*
X008880Y018616D01*
X008831Y018605D01*
X008782Y018598D01*
X008732Y018595D01*
X008683Y018596D01*
X008633Y018601D01*
X008584Y018610D01*
X008536Y018623D01*
X008489Y018639D01*
X008444Y018659D01*
X008400Y018683D01*
X008359Y018710D01*
X008319Y018740D01*
X008282Y018774D01*
X008248Y018810D01*
X008217Y018849D01*
X008189Y018890D01*
X008165Y018933D01*
X008144Y018978D01*
X008126Y019025D01*
X008113Y019072D01*
X008103Y019121D01*
X008097Y019170D01*
X008095Y019220D01*
M02*
