G75*
%MOIN*%
%OFA0B0*%
%FSLAX24Y24*%
%IPPOS*%
%LPD*%
%AMOC8*
5,1,8,0,0,1.08239X$1,22.5*
%
%ADD10C,0.0600*%
%ADD11C,0.0787*%
%ADD12C,0.0520*%
%ADD13OC8,0.0520*%
%ADD14C,0.0240*%
D10*
X001420Y008220D02*
X002020Y008220D01*
X002020Y009220D02*
X001420Y009220D01*
X001420Y010220D02*
X002020Y010220D01*
X002020Y011220D02*
X001420Y011220D01*
X001420Y012220D02*
X002020Y012220D01*
X001720Y013920D02*
X001720Y014520D01*
X001720Y015920D02*
X001720Y016520D01*
X001720Y017920D02*
X001720Y018520D01*
X001720Y019920D02*
X001720Y020520D01*
X002720Y020520D02*
X002720Y019920D01*
X002720Y018520D02*
X002720Y017920D01*
X002720Y016520D02*
X002720Y015920D01*
X002720Y014520D02*
X002720Y013920D01*
X003720Y013920D02*
X003720Y014520D01*
X003720Y015920D02*
X003720Y016520D01*
X003720Y017920D02*
X003720Y018520D01*
X003720Y019920D02*
X003720Y020520D01*
X003420Y012220D02*
X004020Y012220D01*
X004020Y011220D02*
X003420Y011220D01*
X005420Y004220D02*
X006020Y004220D01*
X006020Y003220D02*
X005420Y003220D01*
X005420Y002220D02*
X006020Y002220D01*
X007420Y002220D02*
X008020Y002220D01*
X008020Y003220D02*
X007420Y003220D01*
X007420Y004220D02*
X008020Y004220D01*
X009420Y004220D02*
X010020Y004220D01*
X010020Y003220D02*
X009420Y003220D01*
X009420Y002220D02*
X010020Y002220D01*
X011420Y002220D02*
X012020Y002220D01*
X012020Y003220D02*
X011420Y003220D01*
X011420Y004220D02*
X012020Y004220D01*
X012020Y001220D02*
X011420Y001220D01*
D11*
X004110Y004326D02*
X004110Y005114D01*
X002614Y005940D02*
X001826Y005940D01*
X001826Y003539D02*
X002614Y003539D01*
D12*
X005460Y006220D02*
X005980Y006220D01*
X005980Y007220D02*
X005460Y007220D01*
X005460Y008220D02*
X005980Y008220D01*
X005980Y009220D02*
X005460Y009220D01*
X005460Y010220D02*
X005980Y010220D01*
X005980Y011220D02*
X005460Y011220D01*
X005460Y012220D02*
X005980Y012220D01*
X005980Y013220D02*
X005460Y013220D01*
X005460Y014220D02*
X005980Y014220D01*
X005980Y015220D02*
X005460Y015220D01*
X005460Y016220D02*
X005980Y016220D01*
X005980Y017220D02*
X005460Y017220D01*
X005460Y018220D02*
X005980Y018220D01*
X005980Y019220D02*
X005460Y019220D01*
X005460Y020220D02*
X005980Y020220D01*
X011460Y020220D02*
X011980Y020220D01*
X011980Y019220D02*
X011460Y019220D01*
X011460Y018220D02*
X011980Y018220D01*
X011980Y017220D02*
X011460Y017220D01*
X011460Y016220D02*
X011980Y016220D01*
X011980Y015220D02*
X011460Y015220D01*
X011460Y014220D02*
X011980Y014220D01*
X011980Y013220D02*
X011460Y013220D01*
X011460Y012220D02*
X011980Y012220D01*
X011980Y011220D02*
X011460Y011220D01*
X011460Y010220D02*
X011980Y010220D01*
X011980Y009220D02*
X011460Y009220D01*
X011460Y008220D02*
X011980Y008220D01*
X011980Y007220D02*
X011460Y007220D01*
X011460Y006220D02*
X011980Y006220D01*
D13*
X010220Y011220D03*
X010220Y013220D03*
X010220Y015220D03*
X007220Y015220D03*
X007220Y013220D03*
X007220Y011220D03*
D14*
X000740Y021200D02*
X000740Y000740D01*
X004521Y000740D01*
X003448Y001813D01*
X003313Y001948D01*
X003240Y002125D01*
X003240Y003271D01*
X003189Y003323D01*
X003182Y003303D01*
X003139Y003217D01*
X003082Y003139D01*
X003013Y003071D01*
X002935Y003014D01*
X002849Y002970D01*
X002757Y002940D01*
X002662Y002925D01*
X002220Y002925D01*
X002220Y003539D01*
X002220Y004153D01*
X001778Y004153D01*
X001683Y004137D01*
X001591Y004108D01*
X001505Y004064D01*
X001426Y004007D01*
X001358Y003939D01*
X001301Y003861D01*
X001258Y003774D01*
X001228Y003683D01*
X001213Y003587D01*
X001213Y003539D01*
X002220Y003539D01*
X002220Y003539D01*
X002220Y004153D01*
X002662Y004153D01*
X002740Y004140D01*
X002740Y004742D01*
X002295Y005187D01*
X001676Y005187D01*
X001399Y005302D01*
X001187Y005514D01*
X001073Y005791D01*
X001073Y006090D01*
X001187Y006367D01*
X001399Y006579D01*
X001676Y006694D01*
X002240Y006694D01*
X002240Y007597D01*
X002151Y007560D01*
X001289Y007560D01*
X001046Y007660D01*
X000860Y007846D01*
X000760Y008089D01*
X000760Y008351D01*
X000860Y008594D01*
X000987Y008720D01*
X000860Y008846D01*
X000760Y009089D01*
X000760Y009351D01*
X000860Y009594D01*
X001046Y009780D01*
X001107Y009805D01*
X001081Y009823D01*
X001023Y009881D01*
X000975Y009947D01*
X000938Y010020D01*
X000913Y010098D01*
X000900Y010179D01*
X000900Y010220D01*
X001720Y010220D01*
X002540Y010220D01*
X002540Y010261D01*
X002527Y010342D01*
X002502Y010420D01*
X002465Y010493D01*
X002417Y010559D01*
X002359Y010617D01*
X002293Y010665D01*
X002220Y010702D01*
X002164Y010720D01*
X002220Y010738D01*
X002293Y010775D01*
X002359Y010823D01*
X002417Y010881D01*
X002465Y010947D01*
X002502Y011020D01*
X002527Y011098D01*
X002540Y011179D01*
X002540Y011220D01*
X002540Y011261D01*
X002527Y011342D01*
X002502Y011420D01*
X002465Y011493D01*
X002417Y011559D01*
X002359Y011617D01*
X002333Y011635D01*
X002394Y011660D01*
X002473Y011740D01*
X002967Y011740D01*
X002987Y011720D01*
X002860Y011594D01*
X002760Y011351D01*
X002760Y011089D01*
X002860Y010846D01*
X003046Y010660D01*
X003240Y010580D01*
X003240Y010125D01*
X003313Y009948D01*
X004313Y008948D01*
X004448Y008813D01*
X004625Y008740D01*
X005063Y008740D01*
X005083Y008720D01*
X004934Y008571D01*
X004840Y008343D01*
X004840Y008097D01*
X004934Y007869D01*
X005109Y007694D01*
X005233Y007643D01*
X005208Y007631D01*
X005147Y007586D01*
X005094Y007533D01*
X005049Y007472D01*
X005015Y007404D01*
X004992Y007332D01*
X004980Y007258D01*
X004980Y007220D01*
X005720Y007220D01*
X006460Y007220D01*
X006460Y007258D01*
X006448Y007332D01*
X006425Y007404D01*
X006391Y007472D01*
X006346Y007533D01*
X006293Y007586D01*
X006232Y007631D01*
X006207Y007643D01*
X006331Y007694D01*
X006506Y007869D01*
X006600Y008097D01*
X006600Y008343D01*
X006506Y008571D01*
X006357Y008720D01*
X006506Y008869D01*
X006600Y009097D01*
X006600Y009343D01*
X006506Y009571D01*
X006357Y009720D01*
X006506Y009869D01*
X006600Y010097D01*
X006600Y010343D01*
X006506Y010571D01*
X006357Y010720D01*
X006506Y010869D01*
X006600Y011097D01*
X006600Y011343D01*
X006506Y011571D01*
X006357Y011720D01*
X006506Y011869D01*
X006600Y012097D01*
X006600Y012343D01*
X006506Y012571D01*
X006357Y012720D01*
X006506Y012869D01*
X006600Y013097D01*
X006600Y013343D01*
X006506Y013571D01*
X006357Y013720D01*
X006506Y013869D01*
X006600Y014097D01*
X006600Y014343D01*
X006506Y014571D01*
X006357Y014720D01*
X006506Y014869D01*
X006600Y015097D01*
X006600Y015343D01*
X006506Y015571D01*
X006357Y015720D01*
X006506Y015869D01*
X006600Y016097D01*
X006600Y016343D01*
X006506Y016571D01*
X006357Y016720D01*
X006506Y016869D01*
X006600Y017097D01*
X006600Y017343D01*
X006506Y017571D01*
X006357Y017720D01*
X006506Y017869D01*
X006600Y018097D01*
X006600Y018343D01*
X006506Y018571D01*
X006357Y018720D01*
X006506Y018869D01*
X006600Y019097D01*
X006600Y019343D01*
X006506Y019571D01*
X006357Y019720D01*
X006506Y019869D01*
X006600Y020097D01*
X006600Y020343D01*
X006506Y020571D01*
X006337Y020740D01*
X009021Y020740D01*
X010240Y019521D01*
X010240Y017625D01*
X010313Y017448D01*
X010948Y016813D01*
X011020Y016783D01*
X011083Y016720D01*
X010934Y016571D01*
X010840Y016343D01*
X010840Y016097D01*
X010934Y015869D01*
X011083Y015720D01*
X010934Y015571D01*
X010840Y015343D01*
X010840Y015279D01*
X010840Y015477D01*
X010477Y015840D01*
X009963Y015840D01*
X009600Y015477D01*
X009600Y014963D01*
X009963Y014600D01*
X010161Y014600D01*
X010948Y013813D01*
X011020Y013783D01*
X011083Y013720D01*
X011063Y013700D01*
X010617Y013700D01*
X010477Y013840D01*
X009963Y013840D01*
X009600Y013477D01*
X009600Y012963D01*
X009963Y012600D01*
X010477Y012600D01*
X010617Y012740D01*
X011063Y012740D01*
X011083Y012720D01*
X010934Y012571D01*
X010840Y012343D01*
X010840Y012097D01*
X010934Y011869D01*
X011083Y011720D01*
X011063Y011700D01*
X010617Y011700D01*
X010477Y011840D01*
X009963Y011840D01*
X009600Y011477D01*
X009600Y010963D01*
X009963Y010600D01*
X010477Y010600D01*
X010617Y010740D01*
X011063Y010740D01*
X011083Y010720D01*
X010934Y010571D01*
X010840Y010343D01*
X010840Y010097D01*
X010934Y009869D01*
X011109Y009694D01*
X011233Y009643D01*
X011208Y009631D01*
X011147Y009586D01*
X011094Y009533D01*
X011049Y009472D01*
X011015Y009404D01*
X010992Y009332D01*
X010980Y009258D01*
X010980Y009220D01*
X011720Y009220D01*
X011720Y009220D01*
X010980Y009220D01*
X010980Y009182D01*
X010992Y009108D01*
X011015Y009036D01*
X011049Y008968D01*
X011094Y008907D01*
X011147Y008854D01*
X011208Y008809D01*
X011233Y008797D01*
X011109Y008746D01*
X010934Y008571D01*
X010840Y008343D01*
X010840Y008097D01*
X010934Y007869D01*
X011083Y007720D01*
X010934Y007571D01*
X010840Y007343D01*
X010840Y007097D01*
X010934Y006869D01*
X011083Y006720D01*
X010934Y006571D01*
X010840Y006343D01*
X010840Y006190D01*
X010815Y006200D01*
X007625Y006200D01*
X007448Y006127D01*
X006448Y005127D01*
X006313Y004992D01*
X006250Y004839D01*
X006151Y004880D01*
X005289Y004880D01*
X005046Y004780D01*
X004863Y004597D01*
X004863Y005264D01*
X004749Y005541D01*
X004537Y005753D01*
X004260Y005867D01*
X003960Y005867D01*
X003683Y005753D01*
X003471Y005541D01*
X003420Y005419D01*
X003274Y005565D01*
X003367Y005791D01*
X003367Y006090D01*
X003253Y006367D01*
X003200Y006420D01*
X003200Y008815D01*
X003127Y008992D01*
X002618Y009501D01*
X002580Y009594D01*
X002394Y009780D01*
X002333Y009805D01*
X002359Y009823D01*
X002417Y009881D01*
X002465Y009947D01*
X002502Y010020D01*
X002527Y010098D01*
X002540Y010179D01*
X002540Y010220D01*
X001720Y010220D01*
X001720Y010220D01*
X001720Y010220D01*
X001720Y010700D01*
X001720Y011220D01*
X002540Y011220D01*
X001720Y011220D01*
X001720Y011220D01*
X001720Y011220D01*
X000900Y011220D01*
X000900Y011261D01*
X000913Y011342D01*
X000938Y011420D01*
X000975Y011493D01*
X001023Y011559D01*
X001081Y011617D01*
X001107Y011635D01*
X001046Y011660D01*
X000860Y011846D01*
X000760Y012089D01*
X000760Y012351D01*
X000860Y012594D01*
X001046Y012780D01*
X001289Y012880D01*
X002151Y012880D01*
X002240Y012843D01*
X002240Y013467D01*
X002160Y013546D01*
X002135Y013607D01*
X002117Y013581D01*
X002059Y013523D01*
X001993Y013475D01*
X001920Y013438D01*
X001842Y013413D01*
X001761Y013400D01*
X001720Y013400D01*
X001720Y014220D01*
X001720Y014220D01*
X001720Y015040D01*
X001761Y015040D01*
X001842Y015027D01*
X001920Y015002D01*
X001993Y014965D01*
X002059Y014917D01*
X002117Y014859D01*
X002135Y014833D01*
X002160Y014894D01*
X002240Y014973D01*
X002240Y015467D01*
X002160Y015546D01*
X002135Y015607D01*
X002117Y015581D01*
X002059Y015523D01*
X001993Y015475D01*
X001920Y015438D01*
X001842Y015413D01*
X001761Y015400D01*
X001720Y015400D01*
X001720Y016220D01*
X001720Y016220D01*
X001720Y017040D01*
X001761Y017040D01*
X001842Y017027D01*
X001920Y017002D01*
X001993Y016965D01*
X002059Y016917D01*
X002117Y016859D01*
X002135Y016833D01*
X002160Y016894D01*
X002240Y016973D01*
X002240Y017467D01*
X002160Y017546D01*
X002135Y017607D01*
X002117Y017581D01*
X002059Y017523D01*
X001993Y017475D01*
X001920Y017438D01*
X001842Y017413D01*
X001761Y017400D01*
X001720Y017400D01*
X001720Y018220D01*
X001720Y018220D01*
X001720Y019040D01*
X001761Y019040D01*
X001842Y019027D01*
X001920Y019002D01*
X001993Y018965D01*
X002059Y018917D01*
X002117Y018859D01*
X002135Y018833D01*
X002160Y018894D01*
X002240Y018973D01*
X002240Y019467D01*
X002160Y019546D01*
X002135Y019607D01*
X002117Y019581D01*
X002059Y019523D01*
X001993Y019475D01*
X001920Y019438D01*
X001842Y019413D01*
X001761Y019400D01*
X001720Y019400D01*
X001720Y020220D01*
X001720Y020220D01*
X001720Y021040D01*
X001761Y021040D01*
X001842Y021027D01*
X001920Y021002D01*
X001993Y020965D01*
X002059Y020917D01*
X002117Y020859D01*
X002135Y020833D01*
X002160Y020894D01*
X002346Y021080D01*
X002589Y021180D01*
X002851Y021180D01*
X003094Y021080D01*
X003220Y020953D01*
X003346Y021080D01*
X003589Y021180D01*
X003851Y021180D01*
X003957Y021136D01*
X004021Y021200D01*
X000740Y021200D01*
X000740Y021047D02*
X002314Y021047D01*
X002720Y020220D02*
X002720Y018220D01*
X002720Y016220D01*
X002720Y014220D01*
X002720Y012220D01*
X003720Y012220D01*
X003720Y011220D02*
X003720Y010220D01*
X004720Y009220D01*
X005720Y009220D01*
X006432Y008645D02*
X007648Y008645D01*
X007653Y008662D02*
X007575Y008371D01*
X007575Y008069D01*
X007653Y007778D01*
X007804Y007517D01*
X008017Y007304D01*
X008278Y007153D01*
X008569Y007075D01*
X008871Y007075D01*
X009162Y007153D01*
X009423Y007304D01*
X009636Y007517D01*
X009787Y007778D01*
X009865Y008069D01*
X009865Y008371D01*
X009787Y008662D01*
X009636Y008923D01*
X009423Y009136D01*
X009162Y009287D01*
X008871Y009365D01*
X008569Y009365D01*
X008278Y009287D01*
X008017Y009136D01*
X007804Y008923D01*
X007653Y008662D01*
X007781Y008884D02*
X006512Y008884D01*
X006600Y009122D02*
X008003Y009122D01*
X007585Y008407D02*
X006574Y008407D01*
X006600Y008168D02*
X007575Y008168D01*
X007612Y007930D02*
X006531Y007930D01*
X006323Y007691D02*
X007703Y007691D01*
X007868Y007453D02*
X006400Y007453D01*
X006460Y007220D02*
X005720Y007220D01*
X005720Y007220D01*
X005720Y007220D01*
X004980Y007220D01*
X004980Y007182D01*
X004992Y007108D01*
X005015Y007036D01*
X005049Y006968D01*
X005094Y006907D01*
X005147Y006854D01*
X005208Y006809D01*
X005233Y006797D01*
X005109Y006746D01*
X004934Y006571D01*
X004840Y006343D01*
X004840Y006097D01*
X004934Y005869D01*
X005109Y005694D01*
X005337Y005600D01*
X006103Y005600D01*
X006331Y005694D01*
X006506Y005869D01*
X006600Y006097D01*
X006600Y006343D01*
X006506Y006571D01*
X006331Y006746D01*
X006207Y006797D01*
X006232Y006809D01*
X006293Y006854D01*
X006346Y006907D01*
X006391Y006968D01*
X006425Y007036D01*
X006448Y007108D01*
X006460Y007182D01*
X006460Y007220D01*
X006460Y007214D02*
X008172Y007214D01*
X007343Y006022D02*
X006569Y006022D01*
X006600Y006260D02*
X010840Y006260D01*
X010904Y006499D02*
X006536Y006499D01*
X006340Y006737D02*
X011066Y006737D01*
X010890Y006976D02*
X006394Y006976D01*
X006420Y005783D02*
X007104Y005783D01*
X006866Y005545D02*
X004745Y005545D01*
X004846Y005306D02*
X006627Y005306D01*
X006389Y005068D02*
X004863Y005068D01*
X004863Y004829D02*
X005166Y004829D01*
X004794Y004008D02*
X004860Y003846D01*
X004987Y003720D01*
X004860Y003594D01*
X004760Y003351D01*
X004760Y003089D01*
X004860Y002846D01*
X005046Y002660D01*
X005107Y002635D01*
X005081Y002617D01*
X005023Y002559D01*
X004975Y002493D01*
X004938Y002420D01*
X004913Y002342D01*
X004900Y002261D01*
X004900Y002220D01*
X005720Y002220D01*
X006540Y002220D01*
X006540Y002261D01*
X006527Y002342D01*
X006502Y002420D01*
X006465Y002493D01*
X006417Y002559D01*
X006359Y002617D01*
X006333Y002635D01*
X006394Y002660D01*
X006580Y002846D01*
X006618Y002939D01*
X006627Y002948D01*
X006762Y003083D01*
X006860Y002846D01*
X007046Y002660D01*
X007107Y002635D01*
X007081Y002617D01*
X007023Y002559D01*
X006975Y002493D01*
X006938Y002420D01*
X006913Y002342D01*
X006900Y002261D01*
X006900Y002220D01*
X007720Y002220D01*
X008540Y002220D01*
X008540Y002261D01*
X008527Y002342D01*
X008502Y002420D01*
X008465Y002493D01*
X008417Y002559D01*
X008359Y002617D01*
X008333Y002635D01*
X008394Y002660D01*
X008580Y002846D01*
X008618Y002939D01*
X008627Y002948D01*
X008762Y003083D01*
X008860Y002846D01*
X009046Y002660D01*
X009107Y002635D01*
X009081Y002617D01*
X009023Y002559D01*
X008975Y002493D01*
X008938Y002420D01*
X008913Y002342D01*
X008900Y002261D01*
X008900Y002220D01*
X009720Y002220D01*
X010540Y002220D01*
X010540Y002221D01*
X010822Y001939D01*
X010860Y001846D01*
X010987Y001720D01*
X010860Y001594D01*
X010822Y001501D01*
X010521Y001200D01*
X005419Y001200D01*
X004200Y002419D01*
X004200Y003565D01*
X004197Y003573D01*
X004260Y003573D01*
X004537Y003687D01*
X004749Y003899D01*
X004794Y004008D01*
X004849Y003875D02*
X004724Y003875D01*
X004903Y003637D02*
X004414Y003637D01*
X004200Y003398D02*
X004779Y003398D01*
X004760Y003160D02*
X004200Y003160D01*
X004200Y002921D02*
X004829Y002921D01*
X005024Y002683D02*
X004200Y002683D01*
X004200Y002444D02*
X004951Y002444D01*
X004900Y002220D02*
X004900Y002179D01*
X004913Y002098D01*
X004938Y002020D01*
X004975Y001947D01*
X005023Y001881D01*
X005081Y001823D01*
X005147Y001775D01*
X005220Y001738D01*
X005298Y001713D01*
X005379Y001700D01*
X005720Y001700D01*
X006061Y001700D01*
X006142Y001713D01*
X006220Y001738D01*
X006293Y001775D01*
X006359Y001823D01*
X006417Y001881D01*
X006465Y001947D01*
X006502Y002020D01*
X006527Y002098D01*
X006540Y002179D01*
X006540Y002220D01*
X005720Y002220D01*
X005720Y002220D01*
X005720Y001700D01*
X005720Y002220D01*
X005720Y002220D01*
X005720Y002220D01*
X004900Y002220D01*
X004900Y002206D02*
X004413Y002206D01*
X004652Y001967D02*
X004965Y001967D01*
X004890Y001729D02*
X005250Y001729D01*
X005129Y001490D02*
X010811Y001490D01*
X010573Y001252D02*
X005367Y001252D01*
X005220Y000720D02*
X003720Y002220D01*
X003720Y003470D01*
X003220Y003970D01*
X003220Y004940D01*
X002220Y005940D01*
X002720Y006440D01*
X002720Y008720D01*
X002220Y009220D01*
X001720Y009220D01*
X002373Y009838D02*
X003424Y009838D01*
X003260Y010076D02*
X002520Y010076D01*
X002532Y010315D02*
X003240Y010315D01*
X003240Y010553D02*
X002421Y010553D01*
X002315Y010792D02*
X002915Y010792D01*
X002784Y011030D02*
X002505Y011030D01*
X002539Y011269D02*
X002760Y011269D01*
X002825Y011507D02*
X002454Y011507D01*
X002720Y012220D02*
X001720Y012220D01*
X002240Y012938D02*
X000740Y012938D01*
X000740Y012700D02*
X000966Y012700D01*
X000805Y012461D02*
X000740Y012461D01*
X000740Y012223D02*
X000760Y012223D01*
X000740Y011984D02*
X000803Y011984D01*
X000740Y011746D02*
X000961Y011746D01*
X000986Y011507D02*
X000740Y011507D01*
X000740Y011269D02*
X000901Y011269D01*
X000900Y011220D02*
X000900Y011179D01*
X000913Y011098D01*
X000938Y011020D01*
X000975Y010947D01*
X001023Y010881D01*
X001081Y010823D01*
X001147Y010775D01*
X001220Y010738D01*
X001276Y010720D01*
X001220Y010702D01*
X001147Y010665D01*
X001081Y010617D01*
X001023Y010559D01*
X000975Y010493D01*
X000938Y010420D01*
X000913Y010342D01*
X000900Y010261D01*
X000900Y010220D01*
X001720Y010220D01*
X001720Y010220D01*
X001720Y011220D01*
X001720Y011220D01*
X000900Y011220D01*
X000935Y011030D02*
X000740Y011030D01*
X000740Y010792D02*
X001125Y010792D01*
X001019Y010553D02*
X000740Y010553D01*
X000740Y010315D02*
X000908Y010315D01*
X000920Y010076D02*
X000740Y010076D01*
X000740Y009838D02*
X001067Y009838D01*
X000866Y009599D02*
X000740Y009599D01*
X000740Y009361D02*
X000764Y009361D01*
X000760Y009122D02*
X000740Y009122D01*
X000740Y008884D02*
X000845Y008884D01*
X000912Y008645D02*
X000740Y008645D01*
X000740Y008407D02*
X000783Y008407D01*
X000760Y008168D02*
X000740Y008168D01*
X000740Y007930D02*
X000826Y007930D01*
X000740Y007691D02*
X001016Y007691D01*
X000740Y007453D02*
X002240Y007453D01*
X002240Y007214D02*
X000740Y007214D01*
X000740Y006976D02*
X002240Y006976D01*
X002240Y006737D02*
X000740Y006737D01*
X000740Y006499D02*
X001318Y006499D01*
X001143Y006260D02*
X000740Y006260D01*
X000740Y006022D02*
X001073Y006022D01*
X001076Y005783D02*
X000740Y005783D01*
X000740Y005545D02*
X001175Y005545D01*
X001395Y005306D02*
X000740Y005306D01*
X000740Y005068D02*
X002414Y005068D01*
X002653Y004829D02*
X000740Y004829D01*
X000740Y004591D02*
X002740Y004591D01*
X002740Y004352D02*
X000740Y004352D01*
X000740Y004114D02*
X001609Y004114D01*
X001312Y003875D02*
X000740Y003875D01*
X000740Y003637D02*
X001220Y003637D01*
X001213Y003539D02*
X001213Y003491D01*
X001228Y003395D01*
X001258Y003303D01*
X001301Y003217D01*
X001358Y003139D01*
X001426Y003071D01*
X001505Y003014D01*
X001591Y002970D01*
X001683Y002940D01*
X001778Y002925D01*
X002220Y002925D01*
X002220Y003539D01*
X002220Y003539D01*
X001213Y003539D01*
X001227Y003398D02*
X000740Y003398D01*
X000740Y003160D02*
X001343Y003160D01*
X000740Y002921D02*
X003240Y002921D01*
X003240Y002683D02*
X000740Y002683D01*
X000740Y002444D02*
X003240Y002444D01*
X003240Y002206D02*
X000740Y002206D01*
X000740Y001967D02*
X003305Y001967D01*
X003533Y001729D02*
X000740Y001729D01*
X000740Y001490D02*
X003771Y001490D01*
X004010Y001252D02*
X000740Y001252D01*
X000740Y001013D02*
X004248Y001013D01*
X004487Y000775D02*
X000740Y000775D01*
X002220Y003160D02*
X002220Y003160D01*
X002220Y003398D02*
X002220Y003398D01*
X002220Y003539D02*
X002220Y003539D01*
X002220Y003637D02*
X002220Y003637D01*
X002220Y003875D02*
X002220Y003875D01*
X002220Y004114D02*
X002220Y004114D01*
X003097Y003160D02*
X003240Y003160D01*
X003295Y005545D02*
X003475Y005545D01*
X003364Y005783D02*
X003756Y005783D01*
X003367Y006022D02*
X004871Y006022D01*
X004840Y006260D02*
X003297Y006260D01*
X003200Y006499D02*
X004904Y006499D01*
X005100Y006737D02*
X003200Y006737D01*
X003200Y006976D02*
X005046Y006976D01*
X004980Y007214D02*
X003200Y007214D01*
X003200Y007453D02*
X005040Y007453D01*
X005117Y007691D02*
X003200Y007691D01*
X003200Y007930D02*
X004909Y007930D01*
X004840Y008168D02*
X003200Y008168D01*
X003200Y008407D02*
X004866Y008407D01*
X005008Y008645D02*
X003200Y008645D01*
X003172Y008884D02*
X004378Y008884D01*
X004139Y009122D02*
X002997Y009122D01*
X002758Y009361D02*
X003901Y009361D01*
X003662Y009599D02*
X002574Y009599D01*
X001720Y010315D02*
X001720Y010315D01*
X001720Y010553D02*
X001720Y010553D01*
X001720Y010792D02*
X001720Y010792D01*
X001720Y011030D02*
X001720Y011030D01*
X002240Y013177D02*
X000740Y013177D01*
X000740Y013415D02*
X001591Y013415D01*
X001598Y013413D02*
X001679Y013400D01*
X001720Y013400D01*
X001720Y014220D01*
X001720Y014220D01*
X001720Y014220D01*
X001200Y014220D01*
X001200Y014561D01*
X001213Y014642D01*
X001238Y014720D01*
X001275Y014793D01*
X001323Y014859D01*
X001381Y014917D01*
X001447Y014965D01*
X001520Y015002D01*
X001598Y015027D01*
X001679Y015040D01*
X001720Y015040D01*
X001720Y014220D01*
X001200Y014220D01*
X001200Y013879D01*
X001213Y013798D01*
X001238Y013720D01*
X001275Y013647D01*
X001323Y013581D01*
X001381Y013523D01*
X001447Y013475D01*
X001520Y013438D01*
X001598Y013413D01*
X001720Y013415D02*
X001720Y013415D01*
X001849Y013415D02*
X002240Y013415D01*
X001720Y013654D02*
X001720Y013654D01*
X001720Y013892D02*
X001720Y013892D01*
X001720Y014131D02*
X001720Y014131D01*
X001720Y014369D02*
X001720Y014369D01*
X001720Y014608D02*
X001720Y014608D01*
X001720Y014846D02*
X001720Y014846D01*
X002126Y014846D02*
X002141Y014846D01*
X002240Y015085D02*
X000740Y015085D01*
X000740Y015323D02*
X002240Y015323D01*
X002154Y015562D02*
X002097Y015562D01*
X001720Y015562D02*
X001720Y015562D01*
X001720Y015400D02*
X001720Y016220D01*
X001720Y016220D01*
X001720Y016220D01*
X001200Y016220D01*
X001200Y016561D01*
X001213Y016642D01*
X001238Y016720D01*
X001275Y016793D01*
X001323Y016859D01*
X001381Y016917D01*
X001447Y016965D01*
X001520Y017002D01*
X001598Y017027D01*
X001679Y017040D01*
X001720Y017040D01*
X001720Y016220D01*
X001200Y016220D01*
X001200Y015879D01*
X001213Y015798D01*
X001238Y015720D01*
X001275Y015647D01*
X001323Y015581D01*
X001381Y015523D01*
X001447Y015475D01*
X001520Y015438D01*
X001598Y015413D01*
X001679Y015400D01*
X001720Y015400D01*
X001720Y015800D02*
X001720Y015800D01*
X001720Y016039D02*
X001720Y016039D01*
X001720Y016277D02*
X001720Y016277D01*
X001720Y016516D02*
X001720Y016516D01*
X001720Y016754D02*
X001720Y016754D01*
X001720Y016993D02*
X001720Y016993D01*
X001938Y016993D02*
X002240Y016993D01*
X002240Y017231D02*
X000740Y017231D01*
X000740Y016993D02*
X001502Y016993D01*
X001256Y016754D02*
X000740Y016754D01*
X000740Y016516D02*
X001200Y016516D01*
X001200Y016277D02*
X000740Y016277D01*
X000740Y016039D02*
X001200Y016039D01*
X001213Y015800D02*
X000740Y015800D01*
X000740Y015562D02*
X001343Y015562D01*
X001314Y014846D02*
X000740Y014846D01*
X000740Y014608D02*
X001207Y014608D01*
X001200Y014369D02*
X000740Y014369D01*
X000740Y014131D02*
X001200Y014131D01*
X001200Y013892D02*
X000740Y013892D01*
X000740Y013654D02*
X001272Y013654D01*
X001679Y017400D02*
X001720Y017400D01*
X001720Y018220D01*
X001720Y018220D01*
X001720Y018220D01*
X001200Y018220D01*
X001200Y018561D01*
X001213Y018642D01*
X001238Y018720D01*
X001275Y018793D01*
X001323Y018859D01*
X001381Y018917D01*
X001447Y018965D01*
X001520Y019002D01*
X001598Y019027D01*
X001679Y019040D01*
X001720Y019040D01*
X001720Y018220D01*
X001200Y018220D01*
X001200Y017879D01*
X001213Y017798D01*
X001238Y017720D01*
X001275Y017647D01*
X001323Y017581D01*
X001381Y017523D01*
X001447Y017475D01*
X001520Y017438D01*
X001598Y017413D01*
X001679Y017400D01*
X001720Y017470D02*
X001720Y017470D01*
X001720Y017708D02*
X001720Y017708D01*
X001720Y017947D02*
X001720Y017947D01*
X001720Y018185D02*
X001720Y018185D01*
X001720Y018424D02*
X001720Y018424D01*
X001720Y018662D02*
X001720Y018662D01*
X001720Y018901D02*
X001720Y018901D01*
X002075Y018901D02*
X002167Y018901D01*
X002240Y019139D02*
X000740Y019139D01*
X000740Y018901D02*
X001365Y018901D01*
X001219Y018662D02*
X000740Y018662D01*
X000740Y018424D02*
X001200Y018424D01*
X001200Y018185D02*
X000740Y018185D01*
X000740Y017947D02*
X001200Y017947D01*
X001244Y017708D02*
X000740Y017708D01*
X000740Y017470D02*
X001459Y017470D01*
X001981Y017470D02*
X002237Y017470D01*
X002240Y019378D02*
X000740Y019378D01*
X000740Y019616D02*
X001298Y019616D01*
X001275Y019647D02*
X001323Y019581D01*
X001381Y019523D01*
X001447Y019475D01*
X001520Y019438D01*
X001598Y019413D01*
X001679Y019400D01*
X001720Y019400D01*
X001720Y020220D01*
X001720Y020220D01*
X001720Y020220D01*
X001200Y020220D01*
X001200Y020561D01*
X001213Y020642D01*
X001238Y020720D01*
X001275Y020793D01*
X001323Y020859D01*
X001381Y020917D01*
X001447Y020965D01*
X001520Y021002D01*
X001598Y021027D01*
X001679Y021040D01*
X001720Y021040D01*
X001720Y020220D01*
X001200Y020220D01*
X001200Y019879D01*
X001213Y019798D01*
X001238Y019720D01*
X001275Y019647D01*
X001204Y019855D02*
X000740Y019855D01*
X000740Y020093D02*
X001200Y020093D01*
X001200Y020332D02*
X000740Y020332D01*
X000740Y020570D02*
X001201Y020570D01*
X001287Y020809D02*
X000740Y020809D01*
X001720Y020809D02*
X001720Y020809D01*
X001720Y020570D02*
X001720Y020570D01*
X001720Y020332D02*
X001720Y020332D01*
X001720Y020093D02*
X001720Y020093D01*
X001720Y019855D02*
X001720Y019855D01*
X001720Y019616D02*
X001720Y019616D01*
X003126Y021047D02*
X003314Y021047D01*
X003720Y020220D02*
X004720Y021220D01*
X009220Y021220D01*
X010720Y019720D01*
X010720Y017720D01*
X011220Y017220D01*
X011720Y017220D01*
X011049Y016754D02*
X006391Y016754D01*
X006529Y016516D02*
X010911Y016516D01*
X010840Y016277D02*
X006600Y016277D01*
X006576Y016039D02*
X010864Y016039D01*
X011003Y015800D02*
X010517Y015800D01*
X010755Y015562D02*
X010930Y015562D01*
X010840Y015323D02*
X010840Y015323D01*
X010840Y015279D02*
X010840Y015279D01*
X010392Y014369D02*
X006589Y014369D01*
X006600Y014131D02*
X010631Y014131D01*
X010869Y013892D02*
X006515Y013892D01*
X006423Y013654D02*
X006975Y013654D01*
X007021Y013700D02*
X006740Y013419D01*
X006740Y013220D01*
X007220Y013220D01*
X007700Y013220D01*
X007700Y013419D01*
X007419Y013700D01*
X007220Y013700D01*
X007220Y013220D01*
X007220Y013220D01*
X007220Y013220D01*
X007700Y013220D01*
X007700Y013021D01*
X007419Y012740D01*
X007220Y012740D01*
X007220Y013220D01*
X007220Y013220D01*
X007220Y013220D01*
X007220Y013700D01*
X007021Y013700D01*
X007220Y013654D02*
X007220Y013654D01*
X007220Y013415D02*
X007220Y013415D01*
X007220Y013220D02*
X006740Y013220D01*
X006740Y013021D01*
X007021Y012740D01*
X007220Y012740D01*
X007220Y013220D01*
X007220Y013177D02*
X007220Y013177D01*
X007220Y012938D02*
X007220Y012938D01*
X007617Y012938D02*
X009625Y012938D01*
X009600Y013177D02*
X007700Y013177D01*
X007700Y013415D02*
X009600Y013415D01*
X009777Y013654D02*
X007465Y013654D01*
X006740Y013415D02*
X006570Y013415D01*
X006600Y013177D02*
X006740Y013177D01*
X006823Y012938D02*
X006534Y012938D01*
X006377Y012700D02*
X009864Y012700D01*
X010220Y013220D02*
X011720Y013220D01*
X011720Y014220D02*
X011220Y014220D01*
X010220Y015220D01*
X009923Y015800D02*
X006437Y015800D01*
X006510Y015562D02*
X006883Y015562D01*
X007021Y015700D02*
X006740Y015419D01*
X006740Y015220D01*
X007220Y015220D01*
X007700Y015220D01*
X007700Y015419D01*
X007419Y015700D01*
X007220Y015700D01*
X007220Y015220D01*
X007220Y015220D01*
X007220Y015220D01*
X007700Y015220D01*
X007700Y015021D01*
X007419Y014740D01*
X007220Y014740D01*
X007220Y015220D01*
X007220Y015220D01*
X007220Y015220D01*
X007220Y015700D01*
X007021Y015700D01*
X007220Y015562D02*
X007220Y015562D01*
X007220Y015323D02*
X007220Y015323D01*
X007220Y015220D02*
X006740Y015220D01*
X006740Y015021D01*
X007021Y014740D01*
X007220Y014740D01*
X007220Y015220D01*
X007220Y015085D02*
X007220Y015085D01*
X007220Y014846D02*
X007220Y014846D01*
X006915Y014846D02*
X006483Y014846D01*
X006469Y014608D02*
X009956Y014608D01*
X009717Y014846D02*
X007525Y014846D01*
X007700Y015085D02*
X009600Y015085D01*
X009600Y015323D02*
X007700Y015323D01*
X007557Y015562D02*
X009685Y015562D01*
X010769Y016993D02*
X006557Y016993D01*
X006600Y017231D02*
X010530Y017231D01*
X010304Y017470D02*
X006548Y017470D01*
X006369Y017708D02*
X010240Y017708D01*
X010240Y017947D02*
X006538Y017947D01*
X006600Y018185D02*
X008223Y018185D01*
X008278Y018153D02*
X008569Y018075D01*
X008871Y018075D01*
X009162Y018153D01*
X009423Y018304D01*
X009636Y018517D01*
X009787Y018778D01*
X009865Y019069D01*
X009865Y019371D01*
X009787Y019662D01*
X009636Y019923D01*
X009423Y020136D01*
X009162Y020287D01*
X008871Y020365D01*
X008569Y020365D01*
X008278Y020287D01*
X008017Y020136D01*
X007804Y019923D01*
X007653Y019662D01*
X007575Y019371D01*
X007575Y019069D01*
X007653Y018778D01*
X007804Y018517D01*
X008017Y018304D01*
X008278Y018153D01*
X007897Y018424D02*
X006567Y018424D01*
X006415Y018662D02*
X007720Y018662D01*
X007620Y018901D02*
X006519Y018901D01*
X006600Y019139D02*
X007575Y019139D01*
X007577Y019378D02*
X006586Y019378D01*
X006461Y019616D02*
X007641Y019616D01*
X007764Y019855D02*
X006491Y019855D01*
X006598Y020093D02*
X007974Y020093D01*
X008444Y020332D02*
X006600Y020332D01*
X006506Y020570D02*
X009191Y020570D01*
X008996Y020332D02*
X009430Y020332D01*
X009466Y020093D02*
X009668Y020093D01*
X009676Y019855D02*
X009907Y019855D01*
X009799Y019616D02*
X010145Y019616D01*
X010240Y019378D02*
X009863Y019378D01*
X009865Y019139D02*
X010240Y019139D01*
X010240Y018901D02*
X009820Y018901D01*
X009720Y018662D02*
X010240Y018662D01*
X010240Y018424D02*
X009543Y018424D01*
X009217Y018185D02*
X010240Y018185D01*
X010576Y012700D02*
X011063Y012700D01*
X010889Y012461D02*
X006551Y012461D01*
X006600Y012223D02*
X010840Y012223D01*
X010887Y011984D02*
X006553Y011984D01*
X006382Y011746D02*
X009869Y011746D01*
X009630Y011507D02*
X007612Y011507D01*
X007700Y011419D02*
X007419Y011700D01*
X007220Y011700D01*
X007220Y011220D01*
X007700Y011220D01*
X007700Y011419D01*
X007700Y011269D02*
X009600Y011269D01*
X009600Y011030D02*
X007700Y011030D01*
X007700Y011021D02*
X007700Y011220D01*
X007220Y011220D01*
X007220Y011220D01*
X007220Y011220D01*
X007220Y010740D01*
X007419Y010740D01*
X007700Y011021D01*
X007470Y010792D02*
X009772Y010792D01*
X010220Y011220D02*
X011720Y011220D01*
X011058Y011746D02*
X010571Y011746D01*
X010927Y010553D02*
X006513Y010553D01*
X006428Y010792D02*
X006970Y010792D01*
X007021Y010740D02*
X006740Y011021D01*
X006740Y011220D01*
X007220Y011220D01*
X007220Y011220D01*
X007220Y011220D01*
X007220Y011700D01*
X007021Y011700D01*
X006740Y011419D01*
X006740Y011220D01*
X007220Y011220D01*
X007220Y010740D01*
X007021Y010740D01*
X007220Y010792D02*
X007220Y010792D01*
X007220Y011030D02*
X007220Y011030D01*
X007220Y011269D02*
X007220Y011269D01*
X007220Y011507D02*
X007220Y011507D01*
X006828Y011507D02*
X006532Y011507D01*
X006600Y011269D02*
X006740Y011269D01*
X006740Y011030D02*
X006572Y011030D01*
X006600Y010315D02*
X010840Y010315D01*
X010849Y010076D02*
X006591Y010076D01*
X006474Y009838D02*
X010966Y009838D01*
X011165Y009599D02*
X006478Y009599D01*
X006593Y009361D02*
X008553Y009361D01*
X008887Y009361D02*
X011001Y009361D01*
X010990Y009122D02*
X009437Y009122D01*
X009659Y008884D02*
X011118Y008884D01*
X011008Y008645D02*
X009792Y008645D01*
X009855Y008407D02*
X010866Y008407D01*
X010840Y008168D02*
X009865Y008168D01*
X009828Y007930D02*
X010909Y007930D01*
X011054Y007691D02*
X009737Y007691D01*
X009572Y007453D02*
X010885Y007453D01*
X010840Y007214D02*
X009268Y007214D01*
X009220Y005220D02*
X008720Y004720D01*
X008720Y003720D01*
X008220Y003220D01*
X007720Y003220D01*
X007720Y002220D02*
X007720Y002220D01*
X008540Y002220D01*
X008540Y002179D01*
X008527Y002098D01*
X008502Y002020D01*
X008465Y001947D01*
X008417Y001881D01*
X008359Y001823D01*
X008293Y001775D01*
X008220Y001738D01*
X008142Y001713D01*
X008061Y001700D01*
X007720Y001700D01*
X007720Y002220D01*
X007720Y002220D01*
X007720Y002220D01*
X007720Y001700D01*
X007379Y001700D01*
X007298Y001713D01*
X007220Y001738D01*
X007147Y001775D01*
X007081Y001823D01*
X007023Y001881D01*
X006975Y001947D01*
X006938Y002020D01*
X006913Y002098D01*
X006900Y002179D01*
X006900Y002220D01*
X007720Y002220D01*
X007720Y002206D02*
X007720Y002206D01*
X007720Y001967D02*
X007720Y001967D01*
X007720Y001729D02*
X007720Y001729D01*
X008190Y001729D02*
X009250Y001729D01*
X009220Y001738D02*
X009298Y001713D01*
X009379Y001700D01*
X009720Y001700D01*
X010061Y001700D01*
X010142Y001713D01*
X010220Y001738D01*
X010293Y001775D01*
X010359Y001823D01*
X010417Y001881D01*
X010465Y001947D01*
X010502Y002020D01*
X010527Y002098D01*
X010540Y002179D01*
X010540Y002220D01*
X009720Y002220D01*
X009720Y002220D01*
X009720Y001700D01*
X009720Y002220D01*
X009720Y002220D01*
X009720Y002220D01*
X008900Y002220D01*
X008900Y002179D01*
X008913Y002098D01*
X008938Y002020D01*
X008975Y001947D01*
X009023Y001881D01*
X009081Y001823D01*
X009147Y001775D01*
X009220Y001738D01*
X008965Y001967D02*
X008475Y001967D01*
X008540Y002206D02*
X008900Y002206D01*
X008951Y002444D02*
X008489Y002444D01*
X008416Y002683D02*
X009024Y002683D01*
X008829Y002921D02*
X008611Y002921D01*
X009720Y003220D02*
X010220Y003220D01*
X011220Y002220D01*
X011720Y002220D01*
X011720Y003220D02*
X011220Y003220D01*
X010720Y003720D01*
X010720Y004720D01*
X010220Y005220D01*
X009220Y005220D01*
X007720Y005720D02*
X006720Y004720D01*
X006720Y003720D01*
X006220Y003220D01*
X005720Y003220D01*
X005720Y002206D02*
X005720Y002206D01*
X005720Y001967D02*
X005720Y001967D01*
X005720Y001729D02*
X005720Y001729D01*
X006190Y001729D02*
X007250Y001729D01*
X006965Y001967D02*
X006475Y001967D01*
X006540Y002206D02*
X006900Y002206D01*
X006951Y002444D02*
X006489Y002444D01*
X006416Y002683D02*
X007024Y002683D01*
X006829Y002921D02*
X006611Y002921D01*
X005220Y000720D02*
X010720Y000720D01*
X011220Y001220D01*
X011720Y001220D01*
X010978Y001729D02*
X010190Y001729D01*
X010475Y001967D02*
X010794Y001967D01*
X010556Y002206D02*
X010540Y002206D01*
X009720Y002206D02*
X009720Y002206D01*
X009720Y001967D02*
X009720Y001967D01*
X009720Y001729D02*
X009720Y001729D01*
X011720Y004220D02*
X011720Y004720D01*
X010720Y005720D01*
X007720Y005720D01*
X005020Y005783D02*
X004463Y005783D01*
X004720Y013220D02*
X005720Y013220D01*
X004720Y013220D02*
X003720Y014220D01*
X004720Y015220D02*
X005720Y015220D01*
X006595Y015085D02*
X006740Y015085D01*
X006740Y015323D02*
X006600Y015323D01*
X005720Y017220D02*
X004720Y017220D01*
X003720Y018220D01*
X003720Y016220D02*
X004720Y015220D01*
M02*
